<?xml version="1.0" encoding="UTF-8" ?>
<!DOCTYPE svg PUBLIC "-//W3C//DTD SVG 1.1//EN" "http://www.w3.org/Graphics/SVG/1.1/DTD/svg11.dtd">
<svg width="450pt" height="413pt" viewBox="0 0 450 413" version="1.1" xmlns="http://www.w3.org/2000/svg">
<g id="#ffffffff">
<path fill="#ffffff" opacity="1.00" d=" M 101.29 106.24 C 110.44 106.30 119.60 105.97 128.73 106.40 C 122.13 123.28 115.80 140.27 109.44 157.24 C 109.40 157.42 109.33 157.77 109.29 157.94 C 99.22 157.48 89.12 158.15 79.04 157.81 C 78.31 157.64 76.86 157.32 76.13 157.16 C 84.52 140.19 92.85 123.18 101.29 106.24 Z" />
<path fill="#ffffff" opacity="1.00" d=" M 155.70 106.20 C 164.80 106.23 173.90 106.18 183.00 106.23 C 180.67 123.25 177.82 140.20 175.43 157.22 C 175.42 157.41 175.40 157.79 175.40 157.98 C 164.59 157.78 153.77 157.80 142.96 157.99 C 142.48 164.33 143.02 170.68 142.79 177.03 C 142.77 178.26 142.34 179.34 141.51 180.27 C 141.90 172.82 141.37 165.34 141.79 157.89 C 146.64 140.72 150.96 123.40 155.70 106.20 Z" />
<path fill="#ffffff" opacity="1.00" d=" M 208.69 157.36 C 209.39 140.28 209.77 123.19 210.72 106.13 C 219.65 106.30 228.59 106.18 237.53 106.20 C 238.73 122.11 239.84 138.02 241.14 153.92 C 241.64 162.24 241.23 170.58 241.38 178.90 L 240.96 180.45 C 239.17 173.12 241.11 165.49 239.97 158.07 C 229.99 157.77 219.97 157.70 210.00 158.10 C 208.89 164.83 211.13 171.97 208.71 178.45 C 208.59 171.42 208.60 164.39 208.69 157.36 Z" />
<path fill="#ffffff" opacity="1.00" d=" M 265.04 106.23 C 274.18 106.21 283.33 106.16 292.47 106.26 C 297.68 123.33 302.72 140.47 308.14 157.48 C 296.99 158.36 285.77 157.56 274.60 157.94 C 274.56 157.48 274.47 156.56 274.42 156.10 C 271.36 139.47 268.07 122.87 265.04 106.23 Z" />
<path fill="#ffffff" opacity="1.00" d=" M 319.52 106.14 C 328.62 106.31 337.73 106.13 346.84 106.24 C 355.88 123.18 364.85 140.17 373.86 157.13 C 369.67 158.46 365.26 157.79 360.96 157.84 C 354.21 157.88 347.46 157.77 340.72 157.92 C 340.68 157.75 340.62 157.43 340.58 157.26 C 333.71 140.16 326.27 123.28 319.52 106.14 Z" />
</g>
<g id="#a52333ff">
<path fill="#a52333" opacity="1.00" d=" M 113.65 54.42 C 115.75 53.97 117.92 54.14 120.05 54.11 C 191.40 54.15 262.75 54.07 334.11 54.15 C 339.83 54.05 344.86 59.27 344.71 64.97 C 344.76 76.26 344.73 87.55 344.72 98.84 C 342.94 98.84 341.17 98.73 339.40 98.60 C 339.03 96.77 338.73 94.91 338.76 93.04 C 338.86 84.35 338.73 75.66 338.88 66.97 C 339.05 64.44 338.38 61.49 335.94 60.23 C 330.98 59.54 325.96 60.09 320.97 60.01 C 252.63 59.98 184.28 59.99 115.94 60.02 C 113.78 60.19 111.19 61.62 111.29 64.09 C 110.92 75.65 111.67 87.26 110.91 98.82 C 109.06 98.83 107.22 98.85 105.38 98.83 C 105.45 87.55 105.37 76.26 105.42 64.97 C 105.25 60.09 108.91 55.46 113.65 54.42 Z" />
</g>
<g id="#c02334ff">
<path fill="#c02334" opacity="1.00" d=" M 111.29 64.09 C 111.19 61.62 113.78 60.19 115.94 60.02 C 184.28 59.99 252.63 59.98 320.97 60.01 C 325.96 60.09 330.98 59.54 335.94 60.23 C 338.38 61.49 339.05 64.44 338.88 66.97 C 338.73 75.66 338.86 84.35 338.76 93.04 C 338.73 94.91 339.03 96.77 339.40 98.60 C 341.17 98.73 342.94 98.84 344.72 98.84 C 353.18 98.74 361.65 98.76 370.11 98.81 C 374.00 99.39 374.35 103.45 374.61 106.53 C 385.47 123.47 396.39 140.39 407.34 157.27 C 402.60 158.29 397.73 157.77 392.93 157.85 C 386.68 157.92 380.44 157.82 374.19 157.89 C 374.11 157.70 373.94 157.32 373.86 157.13 C 364.85 140.17 355.88 123.18 346.84 106.24 C 337.73 106.13 328.62 106.31 319.52 106.14 C 326.27 123.28 333.71 140.16 340.58 157.26 C 336.14 158.36 331.56 157.77 327.04 157.84 C 320.74 157.79 314.41 158.20 308.14 157.48 C 302.72 140.47 297.68 123.33 292.47 106.26 C 283.33 106.16 274.18 106.21 265.04 106.23 C 268.07 122.87 271.36 139.47 274.42 156.10 C 274.23 156.47 273.83 157.21 273.64 157.58 C 263.25 158.09 252.81 157.91 242.40 157.71 C 241.97 156.45 241.52 155.20 241.14 153.92 C 239.84 138.02 238.73 122.11 237.53 106.20 C 228.59 106.18 219.65 106.30 210.72 106.13 C 209.77 123.19 209.39 140.28 208.69 157.36 C 202.50 158.34 196.20 157.66 189.96 157.86 C 185.12 157.67 180.20 158.35 175.43 157.22 C 177.82 140.20 180.67 123.25 183.00 106.23 C 173.90 106.18 164.80 106.23 155.70 106.20 C 150.96 123.40 146.64 140.72 141.79 157.89 C 131.01 157.47 120.14 158.65 109.44 157.24 C 115.80 140.27 122.13 123.28 128.73 106.40 C 119.60 105.97 110.44 106.30 101.29 106.24 C 92.85 123.18 84.52 140.19 76.13 157.16 C 76.05 157.35 75.89 157.73 75.81 157.93 C 66.89 157.88 57.96 157.82 49.03 157.94 C 46.90 157.98 44.80 157.64 42.73 157.18 C 52.72 140.97 62.50 124.63 72.45 108.39 C 73.81 106.66 73.22 104.38 73.52 102.36 C 74.20 100.08 76.62 98.55 78.96 98.77 C 87.77 98.82 96.58 98.72 105.38 98.83 C 107.22 98.85 109.06 98.83 110.91 98.82 C 111.67 87.26 110.92 75.65 111.29 64.09 M 165.34 69.40 C 160.81 71.20 160.81 78.83 165.58 80.36 C 168.12 81.93 173.23 81.22 173.41 85.06 C 171.33 89.01 166.09 86.54 162.65 86.55 C 162.60 87.46 162.52 89.27 162.47 90.18 C 166.58 90.64 171.14 92.05 174.98 89.83 C 178.02 88.16 178.61 83.97 177.31 81.00 C 174.75 77.21 169.08 78.42 166.24 74.99 C 168.07 70.58 173.59 73.08 177.16 72.88 C 177.25 72.03 177.44 70.33 177.53 69.48 C 173.54 68.83 169.24 67.83 165.34 69.40 M 187.29 68.93 C 187.27 69.90 187.25 71.84 187.24 72.81 C 189.28 72.79 191.33 72.78 193.37 72.77 C 193.43 78.71 193.37 84.65 193.41 90.60 C 195.04 90.64 196.68 90.66 198.29 90.39 C 198.13 84.50 198.08 78.61 198.29 72.72 C 200.26 72.78 202.23 72.78 204.20 72.75 C 204.20 71.83 204.21 69.99 204.21 69.07 C 198.57 69.13 192.93 68.82 187.29 68.93 M 218.36 69.48 C 212.79 72.23 213.27 79.76 214.19 84.94 C 215.54 91.65 224.60 92.55 229.55 89.43 C 233.31 86.54 232.91 81.17 232.70 76.95 C 232.58 73.46 230.47 69.91 226.96 68.98 C 224.14 68.37 221.05 68.35 218.36 69.48 M 244.35 69.12 C 244.46 76.30 244.31 83.48 244.44 90.66 C 246.06 90.67 247.68 90.61 249.29 90.40 C 249.19 88.06 249.19 85.72 249.23 83.38 C 250.71 83.39 252.19 83.41 253.68 83.42 C 254.55 85.83 255.41 88.25 256.35 90.63 C 258.07 90.67 259.79 90.68 261.50 90.38 C 260.32 87.85 259.29 85.27 258.23 82.69 C 262.89 79.62 262.96 70.99 257.03 69.42 C 252.86 68.84 248.55 68.85 244.35 69.12 M 273.17 68.98 C 272.88 76.16 272.95 83.35 272.92 90.54 C 277.98 90.67 283.04 90.60 288.10 90.54 C 288.06 89.61 287.97 87.73 287.93 86.79 C 284.53 86.77 281.12 86.85 277.73 86.70 C 277.75 85.01 277.77 83.32 277.77 81.63 C 280.47 81.57 283.17 81.60 285.88 81.62 C 285.89 80.35 285.90 79.09 285.91 77.83 C 283.19 77.75 280.46 77.82 277.75 77.72 C 277.76 76.06 277.78 74.41 277.79 72.77 C 281.20 72.79 284.61 72.79 288.02 72.77 C 288.00 71.49 287.96 70.21 287.91 68.93 C 282.99 69.10 278.08 68.84 273.17 68.98 Z" />
</g>
<g id="#fefdfdff">
<path fill="#fefdfd" opacity="1.00" d=" M 165.34 69.40 C 169.24 67.83 173.54 68.83 177.53 69.48 C 177.44 70.33 177.25 72.03 177.16 72.88 C 173.59 73.08 168.07 70.58 166.24 74.99 C 169.08 78.42 174.75 77.21 177.31 81.00 C 178.61 83.97 178.02 88.16 174.98 89.83 C 171.14 92.05 166.58 90.64 162.47 90.18 C 162.52 89.27 162.60 87.46 162.65 86.55 C 166.09 86.54 171.33 89.01 173.41 85.06 C 173.23 81.22 168.12 81.93 165.58 80.36 C 160.81 78.83 160.81 71.20 165.34 69.40 Z" />
</g>
<g id="#fffdffff">
<path fill="#fffdff" opacity="1.00" d=" M 187.29 68.93 C 192.93 68.82 198.57 69.13 204.21 69.07 C 204.21 69.99 204.20 71.83 204.20 72.75 C 202.23 72.78 200.26 72.78 198.29 72.72 C 198.08 78.61 198.13 84.50 198.29 90.39 C 196.68 90.66 195.04 90.64 193.41 90.60 C 193.37 84.65 193.43 78.71 193.37 72.77 C 191.33 72.78 189.28 72.79 187.24 72.81 C 187.25 71.84 187.27 69.90 187.29 68.93 Z" />
</g>
<g id="#fefcffff">
<path fill="#fefcff" opacity="1.00" d=" M 218.36 69.48 C 221.05 68.35 224.14 68.37 226.96 68.98 C 230.47 69.91 232.58 73.46 232.70 76.95 C 232.91 81.17 233.31 86.54 229.55 89.43 C 224.60 92.55 215.54 91.65 214.19 84.94 C 213.27 79.76 212.79 72.23 218.36 69.48 M 220.30 73.32 C 217.72 76.10 218.43 80.49 218.84 83.95 C 219.50 88.14 226.51 88.50 227.53 84.42 C 228.20 81.47 228.13 78.30 227.56 75.34 C 226.78 72.25 222.60 71.50 220.30 73.32 Z" />
</g>
<g id="#fffdfeff">
<path fill="#fffdfe" opacity="1.00" d=" M 244.35 69.12 C 248.55 68.85 252.86 68.84 257.03 69.42 C 262.96 70.99 262.89 79.62 258.23 82.69 C 259.29 85.27 260.32 87.85 261.50 90.38 C 259.79 90.68 258.07 90.67 256.35 90.63 C 255.41 88.25 254.55 85.83 253.68 83.42 C 252.19 83.41 250.71 83.39 249.23 83.38 C 249.19 85.72 249.19 88.06 249.29 90.40 C 247.68 90.61 246.06 90.67 244.44 90.66 C 244.31 83.48 244.46 76.30 244.35 69.12 M 249.28 72.70 C 249.23 75.01 249.20 77.32 249.25 79.63 C 252.11 79.73 257.17 80.27 256.81 75.95 C 256.71 71.91 252.01 72.80 249.28 72.70 Z" />
</g>
<g id="#fefefeff">
<path fill="#fefefe" opacity="1.00" d=" M 273.17 68.98 C 278.08 68.84 282.99 69.10 287.91 68.93 C 287.96 70.21 288.00 71.49 288.02 72.77 C 284.61 72.79 281.20 72.79 277.79 72.77 C 277.78 74.41 277.76 76.06 277.75 77.72 C 280.46 77.82 283.19 77.75 285.91 77.83 C 285.90 79.09 285.89 80.35 285.88 81.62 C 283.17 81.60 280.47 81.57 277.77 81.63 C 277.77 83.32 277.75 85.01 277.73 86.70 C 281.12 86.85 284.53 86.77 287.93 86.79 C 287.97 87.73 288.06 89.61 288.10 90.54 C 283.04 90.60 277.98 90.67 272.92 90.54 C 272.95 83.35 272.88 76.16 273.17 68.98 Z" />
</g>
<g id="#bf2130ff">
<path fill="#bf2130" opacity="1.00" d=" M 249.28 72.70 C 252.01 72.80 256.71 71.91 256.81 75.95 C 257.17 80.27 252.11 79.73 249.25 79.63 C 249.20 77.32 249.23 75.01 249.28 72.70 Z" />
</g>
<g id="#c12435ff">
<path fill="#c12435" opacity="1.00" d=" M 220.30 73.32 C 222.60 71.50 226.78 72.25 227.56 75.34 C 228.13 78.30 228.20 81.47 227.53 84.42 C 226.51 88.50 219.50 88.14 218.84 83.95 C 218.43 80.49 217.72 76.10 220.30 73.32 Z" />
</g>
<g id="#9f1c2aff">
<path fill="#9f1c2a" opacity="1.00" d=" M 241.14 153.92 C 241.52 155.20 241.97 156.45 242.40 157.71 C 252.81 157.91 263.25 158.09 273.64 157.58 C 273.83 157.21 274.23 156.47 274.42 156.10 C 274.47 156.56 274.56 157.48 274.60 157.94 C 274.59 165.29 274.66 172.63 274.55 179.97 C 273.03 185.21 268.45 189.18 263.13 190.19 C 257.16 191.25 250.31 190.65 245.63 186.40 C 243.33 184.52 242.12 181.71 241.38 178.90 C 241.23 170.58 241.64 162.24 241.14 153.92 Z" />
<path fill="#9f1c2a" opacity="1.00" d=" M 42.73 157.18 C 44.80 157.64 46.90 157.98 49.03 157.94 C 57.96 157.82 66.89 157.88 75.81 157.93 C 75.74 165.19 75.82 172.45 75.78 179.72 C 74.09 185.85 68.33 189.95 62.15 190.55 L 61.07 190.61 C 54.85 191.07 47.81 189.22 44.21 183.76 C 41.33 179.73 42.57 174.56 42.31 169.96 C 42.58 165.71 41.74 161.33 42.73 157.18 Z" />
<path fill="#9f1c2a" opacity="1.00" d=" M 109.29 157.94 C 109.33 157.77 109.40 157.42 109.44 157.24 C 120.14 158.65 131.01 157.47 141.79 157.89 C 141.37 165.34 141.90 172.82 141.51 180.27 C 137.34 194.27 113.75 194.26 109.45 180.38 C 109.06 172.91 109.31 165.42 109.29 157.94 Z" />
<path fill="#9f1c2a" opacity="1.00" d=" M 175.40 157.98 C 175.40 157.79 175.42 157.41 175.43 157.22 C 180.20 158.35 185.12 157.67 189.96 157.86 C 196.20 157.66 202.50 158.34 208.69 157.36 C 208.60 164.39 208.59 171.42 208.71 178.45 C 208.63 178.82 208.47 179.57 208.40 179.94 C 204.30 194.35 179.57 194.42 175.47 179.95 C 175.32 172.63 175.41 165.30 175.40 157.98 Z" />
<path fill="#9f1c2a" opacity="1.00" d=" M 308.14 157.48 C 314.41 158.20 320.74 157.79 327.04 157.84 C 331.56 157.77 336.14 158.36 340.58 157.26 C 340.62 157.43 340.68 157.75 340.72 157.92 C 340.67 165.49 341.00 173.09 340.50 180.65 C 335.92 194.26 312.83 194.09 308.36 180.50 C 307.99 172.83 308.39 165.15 308.14 157.48 Z" />
<path fill="#9f1c2a" opacity="1.00" d=" M 392.93 157.85 C 397.73 157.77 402.60 158.29 407.34 157.27 C 407.43 164.51 407.43 171.75 407.34 178.98 C 406.44 186.30 398.83 190.56 392.00 190.69 L 391.11 189.75 C 388.32 187.63 384.68 187.69 381.36 187.38 C 377.37 187.27 375.82 183.14 374.16 180.21 C 374.27 172.77 374.23 165.33 374.19 157.89 C 380.44 157.82 386.68 157.92 392.93 157.85 Z" />
</g>
<g id="#efeeecff">
<path fill="#efeeec" opacity="1.00" d=" M 75.81 157.93 C 75.89 157.73 76.05 157.35 76.13 157.16 C 76.86 157.32 78.31 157.64 79.04 157.81 C 89.12 158.15 99.22 157.48 109.29 157.94 C 109.31 165.42 109.06 172.91 109.45 180.38 C 106.97 184.47 103.84 188.69 98.90 189.82 C 93.31 190.93 86.98 191.10 81.97 187.97 C 79.49 186.40 77.83 183.90 76.00 181.67 C 75.94 181.18 75.83 180.21 75.78 179.72 C 75.82 172.45 75.74 165.19 75.81 157.93 Z" />
<path fill="#efeeec" opacity="1.00" d=" M 274.60 157.94 C 285.77 157.56 296.99 158.36 308.14 157.48 C 308.39 165.15 307.99 172.83 308.36 180.50 C 305.85 184.86 302.21 189.01 297.03 190.00 C 291.48 190.83 285.21 190.97 280.39 187.65 C 277.65 185.82 275.92 182.89 274.55 179.97 C 274.66 172.63 274.59 165.29 274.60 157.94 Z" />
<path fill="#efeeec" opacity="1.00" d=" M 373.86 157.13 C 373.94 157.32 374.11 157.70 374.19 157.89 C 374.23 165.33 374.27 172.77 374.16 180.21 C 373.84 181.38 373.56 182.57 373.30 183.76 C 369.94 186.50 366.55 189.80 362.02 190.27 C 356.98 190.75 351.42 190.81 347.02 187.93 C 344.20 186.18 342.44 183.26 340.50 180.65 C 341.00 173.09 340.67 165.49 340.72 157.92 C 347.46 157.77 354.21 157.88 360.96 157.84 C 365.26 157.79 369.67 158.46 373.86 157.13 Z" />
<path fill="#efeeec" opacity="1.00" d=" M 142.96 157.99 C 153.77 157.80 164.59 157.78 175.40 157.98 C 175.41 165.30 175.32 172.63 175.47 179.95 C 173.50 185.71 168.00 189.93 161.95 190.37 C 156.99 190.74 151.54 190.55 147.36 187.53 C 144.70 185.78 143.00 183.00 141.51 180.27 C 142.34 179.34 142.77 178.26 142.79 177.03 C 143.02 170.68 142.48 164.33 142.96 157.99 Z" />
<path fill="#efeeec" opacity="1.00" d=" M 210.00 158.10 C 219.97 157.70 229.99 157.77 239.97 158.07 C 241.11 165.49 239.17 173.12 240.96 180.45 C 239.90 184.56 236.60 187.93 232.69 189.46 C 226.69 191.32 219.64 191.34 214.31 187.65 C 211.48 185.86 209.76 182.90 208.40 179.94 C 208.47 179.57 208.63 178.82 208.71 178.45 C 211.13 171.97 208.89 164.83 210.00 158.10 Z" />
</g>
<g id="#ccccccff">
<path fill="#cccccc" opacity="1.00" d=" M 241.38 178.90 C 242.12 181.71 243.33 184.52 245.63 186.40 C 250.31 190.65 257.16 191.25 263.13 190.19 C 268.45 189.18 273.03 185.21 274.55 179.97 C 275.92 182.89 277.65 185.82 280.39 187.65 C 285.21 190.97 291.48 190.83 297.03 190.00 C 302.21 189.01 305.85 184.86 308.36 180.50 C 312.83 194.09 335.92 194.26 340.50 180.65 C 342.44 183.26 344.20 186.18 347.02 187.93 C 351.42 190.81 356.98 190.75 362.02 190.27 C 366.55 189.80 369.94 186.50 373.30 183.76 C 373.35 185.33 373.43 186.89 373.58 188.46 C 373.96 188.57 374.72 188.81 375.10 188.93 C 365.68 193.35 355.56 196.04 345.87 199.78 C 341.14 201.73 335.02 202.31 332.41 207.35 C 328.41 214.64 330.49 223.31 329.83 231.23 C 327.60 233.02 324.62 232.25 321.99 232.37 C 307.79 232.33 293.58 232.38 279.38 232.34 C 279.44 250.18 279.43 268.02 279.37 285.86 C 280.50 286.29 281.63 286.73 282.78 287.16 L 282.91 288.07 C 283.06 290.05 283.09 292.04 283.14 294.03 L 282.48 294.12 C 282.55 291.93 282.48 289.73 282.17 287.56 C 275.46 287.55 268.75 288.60 262.06 287.97 C 262.78 274.00 262.17 259.98 262.35 245.99 C 262.23 241.40 262.72 236.79 262.05 232.23 C 238.83 232.45 215.60 232.33 192.38 232.30 C 192.35 256.88 192.53 281.45 192.31 306.02 C 203.37 306.77 214.52 306.19 225.62 306.31 C 225.46 305.12 225.07 304.01 224.46 303.00 L 224.31 302.75 C 224.60 302.28 225.19 301.33 225.48 300.86 C 225.66 301.44 226.02 302.59 226.20 303.17 C 226.61 304.47 227.02 305.77 227.44 307.08 C 228.65 306.59 228.84 305.26 229.26 304.18 C 230.19 305.21 231.19 306.18 232.25 307.08 C 232.34 306.55 232.53 305.49 232.62 304.96 C 233.83 305.76 235.05 306.54 236.27 307.33 C 237.49 305.84 239.52 306.50 241.18 306.41 C 241.43 304.47 241.79 302.55 242.30 300.67 C 242.85 301.52 243.40 302.38 243.96 303.24 C 243.45 304.61 243.85 305.61 245.16 306.25 C 246.96 305.88 246.17 303.27 244.80 302.84 C 244.92 301.41 245.04 299.99 245.16 298.58 C 247.32 298.52 247.01 300.61 247.16 302.16 C 247.18 302.80 247.22 304.08 247.24 304.72 C 247.08 306.78 246.84 308.84 246.61 310.90 C 246.32 311.19 245.72 311.78 245.43 312.07 C 245.11 310.35 244.80 308.64 244.49 306.93 C 244.19 307.20 243.60 307.75 243.30 308.02 C 243.40 308.88 243.51 309.74 243.62 310.61 C 238.87 309.72 234.35 307.36 229.41 307.82 C 230.00 310.97 230.89 314.06 231.54 317.21 C 232.00 318.90 230.27 320.28 230.44 321.96 C 230.69 324.42 231.62 326.76 232.73 328.95 C 233.23 328.84 234.23 328.61 234.72 328.50 C 234.67 328.75 234.55 329.27 234.50 329.52 C 231.20 330.66 235.90 332.45 237.38 332.26 L 237.78 331.93 C 238.16 331.60 238.92 330.94 239.30 330.61 L 240.44 329.52 C 240.61 330.13 240.96 331.35 241.13 331.97 C 240.45 332.71 239.77 333.47 239.10 334.22 C 243.11 336.20 247.14 338.24 251.40 339.60 C 260.31 340.34 269.21 337.88 278.12 338.79 C 278.15 342.54 278.09 346.29 277.99 350.03 C 277.95 350.85 277.88 352.49 277.84 353.31 L 276.38 352.64 C 276.15 350.43 276.39 348.22 276.58 346.02 C 276.32 347.36 276.06 348.72 275.81 350.07 C 241.90 350.15 207.97 349.65 174.06 350.23 C 173.64 307.25 174.13 264.27 173.86 221.29 C 149.30 221.20 124.73 221.28 100.17 221.25 C 100.00 264.24 100.29 307.23 100.02 350.22 C 91.98 349.45 83.90 350.50 75.86 349.89 C 75.69 295.62 75.87 241.35 75.76 187.08 C 75.80 185.27 75.94 183.47 76.00 181.67 C 77.83 183.90 79.49 186.40 81.97 187.97 C 86.98 191.10 93.31 190.93 98.90 189.82 C 103.84 188.69 106.97 184.47 109.45 180.38 C 113.75 194.26 137.34 194.27 141.51 180.27 C 143.00 183.00 144.70 185.78 147.36 187.53 C 151.54 190.55 156.99 190.74 161.95 190.37 C 168.00 189.93 173.50 185.71 175.47 179.95 C 179.57 194.42 204.30 194.35 208.40 179.94 C 209.76 182.90 211.48 185.86 214.31 187.65 C 219.64 191.34 226.69 191.32 232.69 189.46 C 236.60 187.93 239.90 184.56 240.96 180.45 L 241.38 178.90 M 227.00 307.77 C 227.11 311.35 227.21 316.28 230.26 318.52 C 230.82 316.87 229.84 315.27 229.49 313.69 C 228.75 311.69 228.61 309.31 227.00 307.77 Z" />
<path fill="#cccccc" opacity="1.00" d=" M 329.51 303.20 L 329.85 302.59 C 329.80 312.05 329.90 321.50 330.09 330.95 C 330.11 335.35 329.61 340.57 333.03 343.96 C 335.05 346.22 338.32 345.85 341.05 346.10 C 353.62 346.26 366.20 346.24 378.75 345.65 C 382.36 345.01 384.26 341.58 385.95 338.71 C 386.17 341.30 386.51 343.90 386.80 346.49 C 386.41 346.67 385.64 347.04 385.26 347.22 C 383.54 346.82 381.68 345.92 379.99 346.90 C 376.12 348.69 371.80 348.69 367.73 349.72 C 362.55 350.05 357.33 350.15 352.15 349.69 C 348.08 348.29 343.65 349.08 339.62 347.59 C 338.41 347.27 337.18 347.05 335.93 346.94 C 335.87 347.68 335.75 349.15 335.68 349.89 C 326.17 350.64 316.53 349.19 307.10 350.57 C 308.00 345.44 310.31 340.76 312.70 336.19 C 312.58 334.00 310.18 333.59 308.60 332.81 C 311.01 329.54 310.58 325.41 309.96 321.65 C 312.33 321.32 314.71 321.16 317.09 320.87 C 317.05 320.43 316.99 319.55 316.95 319.10 C 314.64 319.20 312.38 319.68 310.09 319.95 C 310.03 318.40 309.97 316.85 309.96 315.31 C 310.90 312.62 311.83 309.93 312.59 307.18 C 311.26 307.27 309.93 307.38 308.60 307.31 C 306.45 307.03 304.33 307.52 302.20 307.72 C 301.58 307.59 300.35 307.31 299.74 307.18 C 300.05 306.10 300.35 305.02 300.64 303.94 C 300.52 304.59 300.30 305.89 300.18 306.53 C 303.05 306.24 305.93 305.60 308.83 305.89 C 311.17 306.30 313.55 306.42 315.92 306.28 C 314.49 309.69 313.55 313.32 313.32 317.02 C 316.12 314.11 316.13 309.81 317.21 306.13 C 317.65 306.06 318.54 305.92 318.99 305.85 C 318.21 310.06 314.63 315.24 318.28 318.98 C 319.57 314.82 320.73 310.61 322.17 306.50 C 324.53 306.62 326.89 306.51 329.25 306.29 C 329.31 305.52 329.44 303.97 329.51 303.20 M 314.46 322.95 C 313.52 326.34 311.12 329.84 312.12 333.41 L 313.17 333.89 C 313.61 330.30 315.77 326.50 314.46 322.95 Z" />
<path fill="#cccccc" opacity="1.00" d=" M 282.18 338.24 C 282.81 338.16 284.06 337.99 284.68 337.91 C 291.51 340.42 298.40 342.73 305.26 345.17 C 304.83 346.74 304.48 348.34 304.13 349.93 C 295.71 349.87 287.29 350.11 278.88 349.99 C 280.04 346.09 280.80 342.07 282.18 338.24 Z" />
</g>
<g id="#999999ff">
<path fill="#999999" opacity="1.00" d=" M 62.15 190.55 C 68.33 189.95 74.09 185.85 75.78 179.72 C 75.83 180.21 75.94 181.18 76.00 181.67 C 75.94 183.47 75.80 185.27 75.76 187.08 C 75.87 241.35 75.69 295.62 75.86 349.89 C 75.49 349.83 74.76 349.70 74.40 349.63 C 70.43 345.60 66.19 341.81 62.33 337.69 C 61.43 333.52 61.98 329.23 62.06 325.02 C 62.04 297.68 62.06 270.34 62.05 243.00 C 62.23 234.65 61.35 226.34 62.08 218.01 C 61.91 212.35 62.54 206.62 61.31 201.04 C 61.39 197.54 62.42 194.09 62.15 190.55 Z" />
<path fill="#999999" opacity="1.00" d=" M 276.64 325.39 C 276.84 325.39 277.24 325.38 277.43 325.38 C 277.37 329.22 277.14 333.05 276.87 336.88 C 276.45 336.88 275.62 336.88 275.21 336.88 C 275.65 333.05 276.36 329.24 276.64 325.39 Z" />
</g>
<g id="#989797ff">
<path fill="#989797" opacity="1.00" d=" M 373.30 183.76 C 373.56 182.57 373.84 181.38 374.16 180.21 C 375.82 183.14 377.37 187.27 381.36 187.38 L 380.73 187.36 C 378.79 187.65 376.91 188.20 375.10 188.93 C 374.72 188.81 373.96 188.57 373.58 188.46 C 373.43 186.89 373.35 185.33 373.30 183.76 Z" />
</g>
<g id="#b7bbbdff">
<path fill="#b7bbbd" opacity="1.00" d=" M 381.36 187.38 C 384.68 187.69 388.32 187.63 391.11 189.75 C 390.15 192.72 389.82 195.84 390.00 198.96 C 390.19 212.30 389.93 225.65 390.13 238.99 C 390.31 243.32 388.89 247.88 390.98 251.95 C 393.19 256.87 392.23 262.48 390.21 267.29 C 389.09 269.71 389.85 272.42 389.92 274.97 C 390.60 281.97 389.18 288.94 389.35 295.95 C 389.08 302.30 390.55 308.58 390.12 314.94 C 389.22 322.90 389.34 330.93 389.62 338.93 C 389.54 340.59 390.14 342.13 390.91 343.58 C 389.70 344.76 388.29 345.71 386.80 346.49 C 386.51 343.90 386.17 341.30 385.95 338.71 C 386.01 338.31 386.12 337.52 386.18 337.13 C 386.75 333.77 386.63 330.36 386.62 326.97 C 386.70 311.32 386.50 295.67 386.78 280.02 C 386.96 272.04 386.26 264.09 386.48 256.12 C 386.65 236.06 386.60 215.99 386.53 195.93 C 386.68 192.06 383.60 189.38 380.73 187.36 L 381.36 187.38 Z" />
</g>
<g id="#fbfbfbff">
<path fill="#fbfbfb" opacity="1.00" d=" M 375.10 188.93 C 376.91 188.20 378.79 187.65 380.73 187.36 C 383.60 189.38 386.68 192.06 386.53 195.93 C 386.60 215.99 386.65 236.06 386.48 256.12 C 385.41 257.00 384.36 257.92 383.26 258.77 C 383.31 253.04 383.41 247.30 383.27 241.57 C 383.40 229.94 383.39 218.31 383.37 206.69 C 379.96 207.70 376.58 208.79 373.21 209.92 C 373.18 208.93 373.13 206.95 373.11 205.96 C 372.82 207.30 372.74 208.67 372.71 210.04 C 366.37 212.05 360.03 214.08 353.67 215.99 C 348.87 217.37 344.16 218.98 339.40 220.46 C 339.45 219.31 339.51 218.16 339.58 217.02 C 339.09 218.32 338.95 219.85 338.01 220.94 C 336.64 221.56 335.12 221.70 333.65 221.88 C 334.81 221.71 335.92 219.41 334.24 219.21 C 333.32 219.76 332.86 220.63 332.85 221.81 C 330.98 225.01 332.01 228.81 331.95 232.31 C 331.93 243.10 331.51 253.92 332.17 264.69 C 331.75 265.17 330.90 266.13 330.48 266.61 C 329.65 261.57 330.36 256.45 329.85 251.38 C 329.85 249.73 329.80 248.08 329.72 246.44 C 329.93 241.37 329.43 236.29 329.83 231.23 C 330.49 223.31 328.41 214.64 332.41 207.35 C 335.02 202.31 341.14 201.73 345.87 199.78 C 355.56 196.04 365.68 193.35 375.10 188.93 M 371.32 200.62 C 373.15 200.05 375.01 199.52 376.81 198.83 C 378.14 198.47 379.41 197.94 380.64 197.32 C 380.44 197.14 380.04 196.79 379.83 196.61 C 377.28 198.50 373.13 197.89 371.32 200.62 M 377.93 207.24 C 379.57 206.59 383.03 206.73 381.81 204.05 C 379.92 204.50 377.16 204.44 377.93 207.24 M 375.37 206.05 C 374.67 207.74 375.12 208.33 376.71 207.82 C 377.40 206.10 376.95 205.51 375.37 206.05 M 336.41 208.39 C 334.60 209.86 332.98 212.94 335.37 214.69 C 338.02 214.57 338.79 211.07 338.04 208.91 C 337.63 208.78 336.82 208.52 336.41 208.39 M 341.44 216.97 C 340.83 218.64 341.31 219.23 342.89 218.76 C 343.51 217.04 343.02 216.44 341.44 216.97 M 336.08 218.38 C 334.45 221.44 339.31 218.54 336.08 218.38 Z" />
<path fill="#fbfbfb" opacity="1.00" d=" M 383.23 270.02 C 384.21 269.75 385.20 269.48 386.18 269.19 C 386.56 291.83 386.18 314.48 386.18 337.13 C 386.12 337.52 386.01 338.31 385.95 338.71 C 384.26 341.58 382.36 345.01 378.75 345.65 C 366.20 346.24 353.62 346.26 341.05 346.10 C 338.32 345.85 335.05 346.22 333.03 343.96 C 329.61 340.57 330.11 335.35 330.09 330.95 C 329.90 321.50 329.80 312.05 329.85 302.59 C 330.30 294.90 330.25 287.16 329.84 279.46 C 326.82 281.43 327.51 285.60 326.56 288.65 C 325.90 288.57 324.59 288.41 323.93 288.33 C 324.57 285.79 325.18 283.24 325.95 280.74 C 326.10 280.29 326.38 279.40 326.53 278.95 C 326.87 277.77 327.19 276.58 327.45 275.38 C 328.80 275.64 330.15 275.65 331.52 275.40 C 331.88 277.76 331.93 280.15 331.90 282.54 C 331.82 291.72 331.92 300.89 331.90 310.07 C 331.84 316.22 331.99 322.37 331.87 328.51 C 341.62 328.38 351.34 327.50 361.08 327.17 C 367.90 326.76 374.75 326.88 381.55 326.22 C 381.96 326.23 382.78 326.26 383.19 326.27 C 383.05 307.52 383.26 288.77 383.23 270.02 M 373.32 335.56 C 375.45 335.44 379.47 336.80 379.43 333.48 C 377.49 333.30 371.47 332.04 373.32 335.56 M 335.31 334.51 C 334.01 337.64 338.64 336.49 340.33 336.41 C 340.31 335.90 340.29 334.89 340.27 334.38 C 338.62 334.23 336.94 334.18 335.31 334.51 Z" />
</g>
<g id="#a6a9aeff">
<path fill="#a6a9ae" opacity="1.00" d=" M 391.11 189.75 L 392.00 190.69 C 394.57 193.83 394.25 198.14 394.25 201.95 C 394.13 218.29 394.24 234.63 394.10 250.97 C 393.99 254.25 395.85 257.42 394.42 260.64 C 394.11 262.07 393.98 263.52 393.98 264.98 C 394.00 288.36 394.02 311.73 393.98 335.11 C 394.05 338.22 392.66 341.09 390.91 343.58 C 390.14 342.13 389.54 340.59 389.62 338.93 C 389.34 330.93 389.22 322.90 390.12 314.94 C 390.55 308.58 389.08 302.30 389.35 295.95 C 389.18 288.94 390.60 281.97 389.92 274.97 C 389.85 272.42 389.09 269.71 390.21 267.29 C 392.23 262.48 393.19 256.87 390.98 251.95 C 388.89 247.88 390.31 243.32 390.13 238.99 C 389.93 225.65 390.19 212.30 390.00 198.96 C 389.82 195.84 390.15 192.72 391.11 189.75 Z" />
</g>
<g id="#f4f4f4ff">
<path fill="#f4f4f4" opacity="1.00" d=" M 61.07 190.61 L 62.15 190.55 C 62.42 194.09 61.39 197.54 61.31 201.04 C 62.54 206.62 61.91 212.35 62.08 218.01 C 61.35 226.34 62.23 234.65 62.05 243.00 C 62.06 270.34 62.04 297.68 62.06 325.02 C 61.98 329.23 61.43 333.52 62.33 337.69 C 66.19 341.81 70.43 345.60 74.40 349.63 C 74.76 349.70 75.49 349.83 75.86 349.89 C 83.90 350.50 91.98 349.45 100.02 350.22 C 124.69 350.49 149.39 350.48 174.06 350.23 C 207.97 349.65 241.90 350.15 275.81 350.07 C 275.71 350.63 275.49 351.75 275.39 352.31 C 272.77 353.01 270.62 354.70 269.75 357.33 C 265.48 358.40 261.06 358.06 256.73 358.58 C 255.09 358.70 253.39 359.12 251.80 358.56 C 250.53 357.80 249.71 355.96 248.05 356.03 C 244.51 355.56 241.22 360.29 243.79 363.20 C 245.32 365.39 248.21 364.87 250.27 363.82 C 250.61 363.69 251.30 363.43 251.65 363.30 C 253.79 364.39 255.96 365.44 258.13 366.50 C 256.45 368.93 257.16 372.14 259.52 373.85 C 258.53 374.74 257.38 375.11 256.06 374.94 C 236.07 375.03 216.07 375.24 196.09 374.87 C 189.71 374.77 183.29 375.35 176.98 374.22 C 168.64 373.69 160.24 374.47 151.97 373.06 C 144.58 373.29 137.28 372.01 129.91 371.78 C 123.96 370.69 117.88 371.44 111.93 370.34 C 95.67 368.72 79.45 366.59 63.38 363.60 C 53.64 361.20 43.28 359.93 34.67 354.35 C 32.37 353.38 30.68 351.38 30.15 348.94 C 29.84 346.56 32.30 345.24 33.79 343.84 C 40.13 339.54 47.84 338.15 55.11 336.20 C 57.02 335.79 59.04 334.86 60.95 335.89 C 61.34 287.47 61.07 239.03 61.07 190.61 Z" />
<path fill="#f4f4f4" opacity="1.00" d=" M 393.98 264.98 C 393.98 263.52 394.11 262.07 394.42 260.64 C 394.73 262.73 394.92 264.85 394.87 266.97 C 394.73 288.65 394.93 310.32 394.74 332.00 C 394.91 333.35 394.27 335.52 396.02 336.08 C 403.56 339.49 412.88 339.90 418.82 346.23 C 421.34 348.58 418.71 352.05 416.75 353.80 C 408.44 359.18 398.47 360.74 389.07 363.28 C 387.65 364.10 386.65 362.29 385.23 362.85 C 384.95 361.95 384.70 361.05 384.48 360.15 C 384.63 357.32 385.47 354.36 384.33 351.64 C 383.42 350.11 384.80 348.63 385.26 347.22 C 385.64 347.04 386.41 346.67 386.80 346.49 C 388.29 345.71 389.70 344.76 390.91 343.58 C 392.66 341.09 394.05 338.22 393.98 335.11 C 394.02 311.73 394.00 288.36 393.98 264.98 Z" />
<path fill="#f4f4f4" opacity="1.00" d=" M 277.99 350.03 L 278.88 349.99 C 287.29 350.11 295.71 349.87 304.13 349.93 C 303.43 352.94 302.85 355.97 302.22 358.99 C 301.89 359.19 301.24 359.58 300.91 359.77 C 298.86 360.36 297.25 361.74 295.83 363.27 C 293.16 362.26 290.29 361.92 287.60 361.01 L 288.40 360.19 C 285.62 359.62 282.86 358.92 280.22 357.89 C 280.19 356.02 279.31 354.40 277.84 353.31 C 277.88 352.49 277.95 350.85 277.99 350.03 Z" />
<path fill="#f4f4f4" opacity="1.00" d=" M 307.10 350.57 C 316.53 349.19 326.17 350.64 335.68 349.89 C 335.82 352.81 336.18 355.72 336.56 358.63 C 338.22 359.14 339.83 359.81 341.35 360.68 C 339.25 360.43 337.01 359.84 335.08 361.02 C 331.72 363.03 327.59 361.52 324.14 363.19 C 322.24 364.06 321.11 366.10 321.24 368.16 C 329.96 369.31 338.65 370.70 347.38 371.87 C 347.44 368.44 347.35 365.02 347.41 361.60 C 348.51 357.45 350.09 353.44 352.15 349.69 C 357.33 350.15 362.55 350.05 367.73 349.72 C 370.49 353.46 372.08 357.86 374.15 361.98 C 372.14 363.97 369.99 365.92 367.12 366.47 C 363.52 367.33 359.97 370.73 361.60 374.68 C 361.54 375.12 361.42 375.98 361.37 376.41 C 358.70 377.33 355.79 376.81 353.02 376.95 C 336.99 377.12 320.96 377.17 304.94 376.89 C 294.32 375.87 283.67 375.15 273.08 373.84 C 271.05 373.30 269.20 374.50 267.27 374.92 C 267.18 373.68 267.08 372.43 267.17 371.20 C 267.40 369.34 267.88 367.16 266.32 365.72 C 264.78 363.79 262.12 363.89 260.00 364.62 C 259.76 361.44 263.43 362.15 265.37 361.39 C 267.16 360.64 269.07 360.59 270.96 360.94 C 271.36 361.41 272.18 362.34 272.59 362.81 C 274.31 362.66 276.04 362.50 277.75 362.25 C 280.91 362.09 283.85 363.39 286.45 365.07 C 286.47 365.98 286.50 366.89 286.53 367.80 C 287.71 367.49 288.89 367.17 290.09 366.90 C 291.74 366.75 293.39 366.69 295.06 366.65 C 295.63 370.26 299.27 373.27 302.96 371.80 C 307.93 370.52 309.39 363.08 304.70 360.45 C 305.64 357.19 306.43 353.89 307.10 350.57 Z" />
</g>
<g id="#3b3838ff">
<path fill="#3b3838" opacity="1.00" d=" M 371.32 200.62 C 373.13 197.89 377.28 198.50 379.83 196.61 C 380.04 196.79 380.44 197.14 380.64 197.32 C 379.41 197.94 378.14 198.47 376.81 198.83 C 375.01 199.52 373.15 200.05 371.32 200.62 Z" />
<path fill="#3b3838" opacity="1.00" d=" M 372.12 247.10 C 373.46 246.44 374.67 244.70 376.37 245.67 C 372.95 250.36 366.82 251.78 361.55 253.40 C 353.64 255.32 345.49 256.04 337.37 256.28 C 337.30 255.82 337.15 254.89 337.07 254.43 C 344.53 254.13 351.99 253.50 359.32 251.99 C 363.75 250.90 368.28 249.67 372.12 247.10 Z" />
<path fill="#3b3838" opacity="1.00" d=" M 270.71 311.71 C 273.24 311.65 275.74 311.15 278.26 310.82 C 278.05 312.81 277.86 314.80 277.70 316.80 C 275.18 316.71 272.67 316.63 270.15 316.58 C 270.34 314.96 270.52 313.33 270.71 311.71 Z" />
<path fill="#3b3838" opacity="1.00" d=" M 237.38 332.26 C 235.90 332.45 231.20 330.66 234.50 329.52 C 235.60 330.30 236.71 331.09 237.78 331.93 L 237.38 332.26 Z" />
<path fill="#3b3838" opacity="1.00" d=" M 276.58 346.02 C 276.39 348.22 276.15 350.43 276.38 352.64 L 277.84 353.31 C 279.31 354.40 280.19 356.02 280.22 357.89 C 279.66 357.64 278.53 357.16 277.96 356.91 C 277.72 356.57 277.22 355.89 276.98 355.55 C 275.11 355.18 273.38 355.67 271.98 356.95 C 271.42 357.04 270.31 357.23 269.75 357.33 C 270.62 354.70 272.77 353.01 275.39 352.31 C 275.49 351.75 275.71 350.63 275.81 350.07 C 276.06 348.72 276.32 347.36 276.58 346.02 Z" />
<path fill="#3b3838" opacity="1.00" d=" M 243.79 363.20 C 241.22 360.29 244.51 355.56 248.05 356.03 C 249.71 355.96 250.53 357.80 251.80 358.56 C 251.34 358.74 250.42 359.11 249.97 359.29 C 248.67 356.50 243.91 357.89 244.90 360.95 C 245.20 363.77 248.48 362.43 250.30 362.51 L 250.27 363.82 C 248.21 364.87 245.32 365.39 243.79 363.20 Z" />
<path fill="#3b3838" opacity="1.00" d=" M 260.00 364.62 C 262.12 363.89 264.78 363.79 266.32 365.72 C 267.88 367.16 267.40 369.34 267.17 371.20 C 265.69 373.82 262.31 375.30 259.52 373.85 C 257.16 372.14 256.45 368.93 258.13 366.50 C 258.75 365.87 259.37 365.24 260.00 364.62 M 261.21 366.34 C 259.19 367.13 258.38 370.27 260.34 371.56 C 262.30 373.28 265.96 371.73 265.59 368.98 C 265.88 366.68 263.08 365.18 261.21 366.34 Z" />
</g>
<g id="#d2d1d0ff">
<path fill="#d2d1d0" opacity="1.00" d=" M 377.93 207.24 C 377.16 204.44 379.92 204.50 381.81 204.05 C 383.03 206.73 379.57 206.59 377.93 207.24 Z" />
</g>
<g id="#5ec5f1ff">
<path fill="#5ec5f1" opacity="1.00" d=" M 372.71 210.04 C 372.74 208.67 372.82 207.30 373.11 205.96 C 373.13 206.95 373.18 208.93 373.21 209.92 C 376.58 208.79 379.96 207.70 383.37 206.69 C 383.39 218.31 383.40 229.94 383.27 241.57 C 382.27 240.37 381.80 238.93 381.58 237.41 C 381.10 237.87 380.63 238.34 380.15 238.80 C 379.32 237.77 378.49 236.74 377.66 235.71 C 376.75 236.12 375.83 236.53 374.94 236.99 C 375.82 234.47 376.00 231.19 373.53 229.49 C 371.82 227.74 369.28 228.57 367.18 228.81 C 366.73 228.88 365.83 229.01 365.39 229.08 C 365.76 228.32 366.15 227.58 366.53 226.83 C 365.81 226.68 365.09 226.53 364.37 226.38 C 365.40 221.92 359.63 221.64 357.84 218.62 C 356.93 217.12 355.14 216.70 353.67 215.99 C 360.03 214.08 366.37 212.05 372.71 210.04 Z" />
</g>
<g id="#aeacacff">
<path fill="#aeacac" opacity="1.00" d=" M 375.37 206.05 C 376.95 205.51 377.40 206.10 376.71 207.82 C 375.12 208.33 374.67 207.74 375.37 206.05 Z" />
</g>
<g id="#535353ff">
<path fill="#535353" opacity="1.00" d=" M 336.41 208.39 C 336.82 208.52 337.63 208.78 338.04 208.91 C 338.79 211.07 338.02 214.57 335.37 214.69 C 332.98 212.94 334.60 209.86 336.41 208.39 Z" />
</g>
<g id="#73daf5ff">
<path fill="#73daf5" opacity="1.00" d=" M 339.40 220.46 C 344.16 218.98 348.87 217.37 353.67 215.99 C 355.14 216.70 356.93 217.12 357.84 218.62 C 359.63 221.64 365.40 221.92 364.37 226.38 C 365.09 226.53 365.81 226.68 366.53 226.83 C 366.15 227.58 365.76 228.32 365.39 229.08 C 365.83 229.01 366.73 228.88 367.18 228.81 C 366.60 229.67 366.02 230.54 365.45 231.40 C 365.53 233.15 365.60 234.91 365.64 236.67 C 367.89 240.00 372.20 239.32 374.94 236.99 C 375.83 236.53 376.75 236.12 377.66 235.71 C 378.49 236.74 379.32 237.77 380.15 238.80 C 380.63 238.34 381.10 237.87 381.58 237.41 C 381.80 238.93 382.27 240.37 383.27 241.57 C 383.41 247.30 383.31 253.04 383.26 258.77 C 382.33 259.43 381.39 260.08 380.42 260.68 C 377.80 262.08 374.96 263.04 372.03 263.54 C 371.50 263.15 370.46 262.38 369.93 261.99 C 372.06 260.52 375.84 261.93 377.06 259.52 C 375.49 259.64 373.93 259.79 372.37 259.94 C 372.78 259.33 373.19 258.72 373.61 258.11 C 371.85 258.04 370.10 257.96 368.36 257.89 C 368.76 256.97 369.17 256.05 369.58 255.13 C 366.68 255.99 363.78 255.57 361.55 253.40 C 366.82 251.78 372.95 250.36 376.37 245.67 C 374.67 244.70 373.46 246.44 372.12 247.10 C 368.28 249.67 363.75 250.90 359.32 251.99 C 353.92 249.89 351.28 244.42 348.33 239.85 C 346.87 236.59 343.38 234.98 339.94 236.04 C 340.15 235.70 340.56 235.02 340.77 234.68 C 341.29 234.34 342.34 233.64 342.86 233.30 C 341.39 231.61 339.26 233.44 337.59 233.80 C 337.62 232.99 337.65 232.17 337.69 231.36 C 336.23 230.02 334.78 228.69 333.32 227.37 C 332.86 229.01 332.38 230.65 331.95 232.31 C 332.01 228.81 330.98 225.01 332.85 221.81 L 333.65 221.88 C 335.12 221.70 336.64 221.56 338.01 220.94 C 338.95 219.85 339.09 218.32 339.58 217.02 C 339.51 218.16 339.45 219.31 339.40 220.46 Z" />
</g>
<g id="#b8bbb6ff">
<path fill="#b8bbb6" opacity="1.00" d=" M 341.44 216.97 C 343.02 216.44 343.51 217.04 342.89 218.76 C 341.31 219.23 340.83 218.64 341.44 216.97 Z" />
</g>
<g id="#cbc9d0ff">
<path fill="#cbc9d0" opacity="1.00" d=" M 336.08 218.38 C 339.31 218.54 334.45 221.44 336.08 218.38 Z" />
</g>
<g id="#bbbbbdff">
<path fill="#bbbbbd" opacity="1.00" d=" M 334.24 219.21 C 335.92 219.41 334.81 221.71 333.65 221.88 L 332.85 221.81 C 332.86 220.63 333.32 219.76 334.24 219.21 Z" />
</g>
<g id="#989896ff">
<path fill="#989896" opacity="1.00" d=" M 100.17 221.25 C 124.73 221.28 149.30 221.20 173.86 221.29 C 174.13 264.27 173.64 307.25 174.06 350.23 C 149.39 350.48 124.69 350.49 100.02 350.22 C 100.29 307.23 100.00 264.24 100.17 221.25 M 103.43 224.45 C 103.37 231.53 103.32 238.60 103.41 245.68 C 103.50 248.67 102.97 251.73 103.57 254.67 C 103.38 263.53 103.07 272.52 103.57 281.32 C 103.12 291.62 103.41 301.95 103.37 312.26 C 103.32 317.16 103.41 322.07 103.37 326.98 C 103.41 333.62 103.13 340.28 103.64 346.91 C 111.83 346.90 120.03 347.33 128.21 346.86 C 132.50 347.28 136.83 347.14 141.14 346.97 C 147.35 347.00 153.59 347.37 159.79 346.82 C 163.45 347.25 167.15 347.14 170.84 347.01 C 170.68 340.75 170.93 334.49 170.64 328.24 C 171.07 323.50 170.81 318.74 170.82 314.00 C 170.60 302.62 170.98 291.24 170.72 279.87 C 170.71 272.12 171.18 264.27 170.57 256.57 C 170.84 245.82 171.06 235.00 170.52 224.27 C 160.51 224.79 150.46 224.03 140.46 224.71 C 136.18 224.10 131.70 224.46 127.36 224.70 C 122.19 224.03 116.78 224.55 111.52 224.57 C 108.84 224.19 106.12 224.46 103.43 224.45 Z" />
</g>
<g id="#abdcecff">
<path fill="#abdcec" opacity="1.00" d=" M 103.43 224.45 C 106.12 224.46 108.84 224.19 111.52 224.57 C 112.51 225.17 113.49 225.78 114.47 226.41 C 114.17 226.84 113.88 227.27 113.58 227.71 C 114.68 228.14 115.78 228.57 116.87 229.01 C 118.50 232.90 122.52 234.80 125.02 238.02 C 127.51 241.20 131.03 243.36 133.51 246.56 C 135.55 249.16 138.38 250.97 140.58 253.42 C 145.41 258.91 150.30 264.45 156.17 268.86 C 158.50 270.55 159.18 273.73 161.74 275.18 C 164.87 277.11 167.20 279.96 169.46 282.81 C 169.89 281.83 170.32 280.85 170.72 279.87 C 170.98 291.24 170.60 302.62 170.82 314.00 C 170.81 318.74 171.07 323.50 170.64 328.24 C 170.39 326.26 170.05 324.29 169.90 322.31 C 170.11 318.61 170.50 314.85 169.70 311.20 C 167.12 308.78 164.81 306.04 161.85 304.06 C 159.49 302.46 158.61 299.45 156.24 297.83 C 152.52 295.19 150.20 291.13 146.56 288.40 C 143.55 286.10 141.88 282.43 138.55 280.51 C 136.36 279.37 135.37 277.03 133.79 275.27 C 127.15 269.59 121.65 262.73 115.17 256.89 C 110.70 253.76 107.21 249.55 103.41 245.68 C 103.32 238.60 103.37 231.53 103.43 224.45 Z" />
</g>
<g id="#c7e7f3ff">
<path fill="#c7e7f3" opacity="1.00" d=" M 111.52 224.57 C 116.78 224.55 122.19 224.03 127.36 224.70 C 129.15 225.94 131.27 226.32 133.39 226.56 C 134.12 227.76 134.77 229.03 135.67 230.13 C 144.95 239.60 154.54 248.79 163.62 258.46 C 165.86 260.17 168.36 261.62 170.00 264.01 C 170.32 261.25 170.42 258.46 170.23 255.68 L 170.57 256.57 C 171.18 264.27 170.71 272.12 170.72 279.87 C 170.32 280.85 169.89 281.83 169.46 282.81 C 167.20 279.96 164.87 277.11 161.74 275.18 C 159.18 273.73 158.50 270.55 156.17 268.86 C 150.30 264.45 145.41 258.91 140.58 253.42 C 138.38 250.97 135.55 249.16 133.51 246.56 C 131.03 243.36 127.51 241.20 125.02 238.02 C 122.52 234.80 118.50 232.90 116.87 229.01 C 115.78 228.57 114.68 228.14 113.58 227.71 C 113.88 227.27 114.17 226.84 114.47 226.41 C 113.49 225.78 112.51 225.17 111.52 224.57 Z" />
</g>
<g id="#dff2faff">
<path fill="#dff2fa" opacity="1.00" d=" M 127.36 224.70 C 131.70 224.46 136.18 224.10 140.46 224.71 C 143.06 226.23 146.50 225.93 148.67 228.21 C 150.68 229.95 151.77 232.54 154.00 234.05 C 157.16 236.19 158.78 239.88 161.94 242.03 C 164.37 243.78 165.92 246.53 168.58 247.97 C 169.12 250.54 169.56 253.14 170.23 255.68 C 170.42 258.46 170.32 261.25 170.00 264.01 C 168.36 261.62 165.86 260.17 163.62 258.46 C 154.54 248.79 144.95 239.60 135.67 230.13 C 134.77 229.03 134.12 227.76 133.39 226.56 C 131.27 226.32 129.15 225.94 127.36 224.70 Z" />
</g>
<g id="#f2fafeff">
<path fill="#f2fafe" opacity="1.00" d=" M 140.46 224.71 C 150.46 224.03 160.51 224.79 170.52 224.27 C 171.06 235.00 170.84 245.82 170.57 256.57 L 170.23 255.68 C 169.56 253.14 169.12 250.54 168.58 247.97 C 165.92 246.53 164.37 243.78 161.94 242.03 C 158.78 239.88 157.16 236.19 154.00 234.05 C 151.77 232.54 150.68 229.95 148.67 228.21 C 146.50 225.93 143.06 226.23 140.46 224.71 Z" />
</g>
<g id="#7de4f6ff">
<path fill="#7de4f6" opacity="1.00" d=" M 333.32 227.37 C 334.78 228.69 336.23 230.02 337.69 231.36 C 337.65 232.17 337.62 232.99 337.59 233.80 C 339.26 233.44 341.39 231.61 342.86 233.30 C 342.34 233.64 341.29 234.34 340.77 234.68 C 340.56 235.02 340.15 235.70 339.94 236.04 C 338.95 237.88 336.90 239.48 337.48 241.81 C 337.82 245.56 342.55 247.95 345.64 245.61 C 347.79 244.49 347.94 241.95 348.33 239.85 C 351.28 244.42 353.92 249.89 359.32 251.99 C 351.99 253.50 344.53 254.13 337.07 254.43 C 337.15 254.89 337.30 255.82 337.37 256.28 C 345.49 256.04 353.64 255.32 361.55 253.40 C 363.78 255.57 366.68 255.99 369.58 255.13 C 369.17 256.05 368.76 256.97 368.36 257.89 C 370.10 257.96 371.85 258.04 373.61 258.11 C 373.19 258.72 372.78 259.33 372.37 259.94 C 373.93 259.79 375.49 259.64 377.06 259.52 C 375.84 261.93 372.06 260.52 369.93 261.99 C 370.46 262.38 371.50 263.15 372.03 263.54 C 363.85 265.04 355.52 263.69 347.48 262.02 C 344.92 256.77 338.05 259.89 334.95 262.95 C 334.02 263.53 333.10 264.11 332.17 264.69 C 331.51 253.92 331.93 243.10 331.95 232.31 C 332.38 230.65 332.86 229.01 333.32 227.37 Z" />
</g>
<g id="#f8faf8ff">
<path fill="#f8faf8" opacity="1.00" d=" M 367.18 228.81 C 369.28 228.57 371.82 227.74 373.53 229.49 C 376.00 231.19 375.82 234.47 374.94 236.99 C 372.20 239.32 367.89 240.00 365.64 236.67 C 365.60 234.91 365.53 233.15 365.45 231.40 C 366.02 230.54 366.60 229.67 367.18 228.81 M 366.02 234.91 C 366.07 237.62 370.16 238.44 371.66 236.42 C 373.00 235.39 372.42 233.56 372.56 232.12 C 370.59 233.71 367.96 232.94 368.35 230.02 C 366.55 231.03 365.58 232.87 366.02 234.91 Z" />
</g>
<g id="#979595ff">
<path fill="#979595" opacity="1.00" d=" M 321.99 232.37 C 324.62 232.25 327.60 233.02 329.83 231.23 C 329.43 236.29 329.93 241.37 329.72 246.44 C 329.05 242.84 329.09 239.18 329.05 235.55 C 320.58 235.50 312.11 235.57 303.64 235.68 C 296.65 235.51 289.66 235.52 282.67 235.63 C 282.72 236.36 282.81 237.82 282.85 238.55 C 282.73 243.57 282.65 248.59 282.85 253.60 C 282.65 264.79 282.80 275.97 282.78 287.16 C 281.63 286.73 280.50 286.29 279.37 285.86 C 279.43 268.02 279.44 250.18 279.38 232.34 C 293.58 232.38 307.79 232.33 321.99 232.37 Z" />
<path fill="#979595" opacity="1.00" d=" M 299.11 292.31 C 306.60 291.00 314.03 289.30 321.60 288.44 C 322.18 288.42 323.35 288.36 323.93 288.33 C 324.59 288.41 325.90 288.57 326.56 288.65 C 325.01 290.36 322.40 289.94 320.32 290.41 C 318.04 290.67 315.76 290.92 313.49 291.15 C 312.37 294.33 311.78 297.65 311.35 300.98 C 311.46 297.69 312.03 294.45 312.92 291.29 C 309.77 291.41 306.64 291.76 303.53 292.20 C 302.06 292.33 300.58 292.33 299.11 292.31 Z" />
<path fill="#979595" opacity="1.00" d=" M 252.31 291.07 C 254.15 290.82 256.00 290.68 257.86 290.63 C 256.05 291.18 254.15 291.43 252.27 291.61 C 252.30 293.70 252.46 295.78 252.73 297.85 C 252.39 297.89 251.72 297.96 251.38 297.99 C 251.26 296.13 251.13 294.26 251.03 292.41 C 247.65 292.31 244.30 292.84 240.97 293.35 C 241.20 294.57 241.43 295.79 241.67 297.02 C 241.27 296.95 240.47 296.83 240.07 296.77 C 239.95 296.08 239.71 294.70 239.59 294.01 C 234.91 293.49 230.34 296.08 225.77 294.55 C 228.28 293.84 230.82 293.27 233.40 292.86 C 235.98 292.67 238.54 292.34 241.11 292.05 C 244.84 291.61 248.59 291.58 252.31 291.07 Z" />
</g>
<g id="#1f1c23ff">
<path fill="#1f1c23" opacity="1.00" d=" M 366.02 234.91 C 365.58 232.87 366.55 231.03 368.35 230.02 C 367.96 232.94 370.59 233.71 372.56 232.12 C 372.42 233.56 373.00 235.39 371.66 236.42 C 370.16 238.44 366.07 237.62 366.02 234.91 Z" />
</g>
<g id="#989696ff">
<path fill="#989696" opacity="1.00" d=" M 192.38 232.30 C 215.60 232.33 238.83 232.45 262.05 232.23 C 262.72 236.79 262.23 241.40 262.35 245.99 C 262.17 259.98 262.78 274.00 262.06 287.97 C 261.79 288.46 261.25 289.44 260.99 289.93 C 260.53 289.88 259.62 289.78 259.16 289.73 C 258.96 283.75 259.28 277.77 259.02 271.79 C 259.11 269.13 259.04 266.47 259.01 263.81 C 259.13 260.95 259.10 258.08 259.02 255.21 C 259.04 248.69 259.13 242.16 259.12 235.63 C 251.58 235.53 244.04 235.55 236.50 235.69 C 232.91 235.50 229.32 235.62 225.73 235.60 C 222.75 235.60 219.76 235.59 216.78 235.55 C 211.12 235.55 205.46 235.52 199.80 235.56 C 198.41 235.58 197.02 235.60 195.64 235.63 C 195.57 239.68 195.54 243.74 195.57 247.79 C 195.56 250.38 195.55 252.96 195.69 255.55 C 195.53 263.40 195.58 271.25 195.58 279.10 C 195.56 283.54 195.61 287.97 195.63 292.41 C 195.58 295.91 195.46 299.42 195.74 302.91 C 199.88 303.16 204.03 303.11 208.18 302.90 C 213.60 302.92 219.03 303.34 224.46 303.00 C 225.07 304.01 225.46 305.12 225.62 306.31 C 214.52 306.19 203.37 306.77 192.31 306.02 C 192.53 281.45 192.35 256.88 192.38 232.30 Z" />
<path fill="#989696" opacity="1.00" d=" M 283.91 336.32 C 284.69 332.25 284.68 327.86 286.51 324.08 C 286.41 327.98 286.46 331.92 285.75 335.77 C 285.29 335.91 284.37 336.19 283.91 336.32 Z" />
</g>
<g id="#bfe5f1ff">
<path fill="#bfe5f1" opacity="1.00" d=" M 195.64 235.63 C 197.02 235.60 198.41 235.58 199.80 235.56 C 202.68 237.91 204.68 241.16 207.68 243.36 C 211.02 245.69 212.58 249.77 216.01 252.03 C 218.19 253.48 220.12 255.26 221.49 257.52 C 223.29 260.37 226.95 261.35 228.59 264.34 C 230.45 267.76 234.18 269.49 236.30 272.73 C 238.23 275.87 242.70 276.33 244.10 279.87 C 245.30 282.87 248.36 284.24 250.45 286.47 C 251.24 287.93 251.73 289.52 252.31 291.07 C 248.59 291.58 244.84 291.61 241.11 292.05 C 241.26 291.59 241.56 290.67 241.71 290.21 C 239.95 289.91 237.87 290.08 236.73 288.44 C 231.57 282.53 225.79 277.24 220.37 271.59 C 214.99 266.97 211.16 260.82 205.57 256.42 C 202.01 253.79 199.41 250.06 195.57 247.79 C 195.54 243.74 195.57 239.68 195.64 235.63 Z" />
</g>
<g id="#a9daebff">
<path fill="#a9daeb" opacity="1.00" d=" M 199.80 235.56 C 205.46 235.52 211.12 235.55 216.78 235.55 C 219.98 237.36 220.60 241.36 223.55 243.40 C 227.30 246.32 229.90 250.41 233.73 253.26 C 239.69 260.29 247.28 265.76 253.03 273.00 C 254.27 274.63 256.10 275.63 257.82 276.69 C 258.22 275.05 258.66 273.43 259.02 271.79 C 259.28 277.77 258.96 283.75 259.16 289.73 C 259.62 289.78 260.53 289.88 260.99 289.93 C 258.89 291.87 259.16 294.73 259.18 297.33 C 257.03 297.53 254.87 297.63 252.73 297.85 C 252.46 295.78 252.30 293.70 252.27 291.61 C 254.15 291.43 256.05 291.18 257.86 290.63 C 256.00 290.68 254.15 290.82 252.31 291.07 C 251.73 289.52 251.24 287.93 250.45 286.47 C 248.36 284.24 245.30 282.87 244.10 279.87 C 242.70 276.33 238.23 275.87 236.30 272.73 C 234.18 269.49 230.45 267.76 228.59 264.34 C 226.95 261.35 223.29 260.37 221.49 257.52 C 220.12 255.26 218.19 253.48 216.01 252.03 C 212.58 249.77 211.02 245.69 207.68 243.36 C 204.68 241.16 202.68 237.91 199.80 235.56 Z" />
</g>
<g id="#bfe4f1ff">
<path fill="#bfe4f1" opacity="1.00" d=" M 216.78 235.55 C 219.76 235.59 222.75 235.60 225.73 235.60 C 232.79 240.67 238.15 247.64 244.51 253.51 C 248.91 257.90 253.33 262.28 257.59 266.81 C 258.07 265.81 258.54 264.81 259.01 263.81 C 259.04 266.47 259.11 269.13 259.02 271.79 C 258.66 273.43 258.22 275.05 257.82 276.69 C 256.10 275.63 254.27 274.63 253.03 273.00 C 247.28 265.76 239.69 260.29 233.73 253.26 C 229.90 250.41 227.30 246.32 223.55 243.40 C 220.60 241.36 219.98 237.36 216.78 235.55 Z" />
</g>
<g id="#d6eef7ff">
<path fill="#d6eef7" opacity="1.00" d=" M 225.73 235.60 C 229.32 235.62 232.91 235.50 236.50 235.69 C 238.00 236.41 239.53 237.04 241.11 237.58 C 245.41 244.48 252.63 248.93 257.45 255.46 C 257.84 255.40 258.63 255.27 259.02 255.21 C 259.10 258.08 259.13 260.95 259.01 263.81 C 258.54 264.81 258.07 265.81 257.59 266.81 C 253.33 262.28 248.91 257.90 244.51 253.51 C 238.15 247.64 232.79 240.67 225.73 235.60 Z" />
</g>
<g id="#f0f9fdff">
<path fill="#f0f9fd" opacity="1.00" d=" M 236.50 235.69 C 244.04 235.55 251.58 235.53 259.12 235.63 C 259.13 242.16 259.04 248.69 259.02 255.21 C 258.63 255.27 257.84 255.40 257.45 255.46 C 252.63 248.93 245.41 244.48 241.11 237.58 C 239.53 237.04 238.00 236.41 236.50 235.69 Z" />
</g>
<g id="#aeddedff">
<path fill="#aedded" opacity="1.00" d=" M 282.67 235.63 C 289.66 235.52 296.65 235.51 303.64 235.68 C 305.41 236.35 307.19 237.04 308.99 237.67 C 308.30 237.83 306.94 238.13 306.26 238.29 C 310.51 239.86 313.02 243.81 316.35 246.65 C 320.81 250.52 324.58 255.08 328.86 259.13 L 328.92 260.24 C 323.93 260.31 318.92 259.95 314.03 258.95 C 312.30 254.94 307.16 256.77 304.87 259.25 C 303.52 259.34 302.19 259.44 300.84 259.53 C 298.98 255.20 294.50 252.99 291.68 249.40 C 289.78 246.96 287.13 245.35 284.71 243.52 C 284.35 241.77 283.70 240.11 282.85 238.55 C 282.81 237.82 282.72 236.36 282.67 235.63 Z" />
</g>
<g id="#cae9f4ff">
<path fill="#cae9f4" opacity="1.00" d=" M 303.64 235.68 C 312.11 235.57 320.58 235.50 329.05 235.55 C 329.09 239.18 329.05 242.84 329.72 246.44 C 329.80 248.08 329.85 249.73 329.85 251.38 C 328.89 253.85 328.72 256.50 328.86 259.13 C 324.58 255.08 320.81 250.52 316.35 246.65 C 313.02 243.81 310.51 239.86 306.26 238.29 C 306.94 238.13 308.30 237.83 308.99 237.67 C 307.19 237.04 305.41 236.35 303.64 235.68 Z" />
</g>
<g id="#fdfffbff">
<path fill="#fdfffb" opacity="1.00" d=" M 339.94 236.04 C 343.38 234.98 346.87 236.59 348.33 239.85 C 347.94 241.95 347.79 244.49 345.64 245.61 C 342.55 247.95 337.82 245.56 337.48 241.81 C 336.90 239.48 338.95 237.88 339.94 236.04 M 340.28 244.68 C 343.74 246.10 346.41 242.21 345.12 239.10 C 344.57 239.55 343.47 240.45 342.92 240.90 C 341.51 240.27 340.98 239.05 341.18 237.52 C 338.00 238.50 337.00 243.20 340.28 244.68 Z" />
</g>
<g id="#241f23ff">
<path fill="#241f23" opacity="1.00" d=" M 340.28 244.68 C 337.00 243.20 338.00 238.50 341.18 237.52 C 340.98 239.05 341.51 240.27 342.92 240.90 C 343.47 240.45 344.57 239.55 345.12 239.10 C 346.41 242.21 343.74 246.10 340.28 244.68 Z" />
</g>
<g id="#d0ecf6ff">
<path fill="#d0ecf6" opacity="1.00" d=" M 282.85 238.55 C 283.70 240.11 284.35 241.77 284.71 243.52 C 287.13 245.35 289.78 246.96 291.68 249.40 C 294.50 252.99 298.98 255.20 300.84 259.53 C 302.19 259.44 303.52 259.34 304.87 259.25 C 304.60 259.49 304.07 259.98 303.80 260.22 C 301.98 261.40 300.04 262.50 298.70 264.25 C 297.86 265.56 297.08 266.90 296.35 268.28 C 294.34 267.25 292.90 263.92 290.32 265.27 C 290.08 264.32 289.85 263.38 289.62 262.44 C 288.05 261.36 286.41 260.38 285.00 259.10 C 284.05 257.37 283.56 255.43 282.85 253.60 C 282.65 248.59 282.73 243.57 282.85 238.55 Z" />
</g>
<g id="#bce3f0ff">
<path fill="#bce3f0" opacity="1.00" d=" M 103.41 245.68 C 107.21 249.55 110.70 253.76 115.17 256.89 C 121.65 262.73 127.15 269.59 133.79 275.27 C 135.37 277.03 136.36 279.37 138.55 280.51 C 141.88 282.43 143.55 286.10 146.56 288.40 C 150.20 291.13 152.52 295.19 156.24 297.83 C 158.61 299.45 159.49 302.46 161.85 304.06 C 164.81 306.04 167.12 308.78 169.70 311.20 C 170.50 314.85 170.11 318.61 169.90 322.31 C 164.11 319.21 160.33 313.78 155.43 309.60 C 149.76 303.58 143.81 297.83 137.95 292.01 C 135.01 287.99 130.63 285.40 127.53 281.53 C 122.28 276.49 117.31 271.18 112.05 266.16 C 107.80 263.65 105.43 259.07 103.57 254.67 C 102.97 251.73 103.50 248.67 103.41 245.68 Z" />
</g>
<g id="#d8f0f8ff">
<path fill="#d8f0f8" opacity="1.00" d=" M 195.57 247.79 C 199.41 250.06 202.01 253.79 205.57 256.42 C 211.16 260.82 214.99 266.97 220.37 271.59 C 225.79 277.24 231.57 282.53 236.73 288.44 C 237.87 290.08 239.95 289.91 241.71 290.21 C 241.56 290.67 241.26 291.59 241.11 292.05 C 238.54 292.34 235.98 292.67 233.40 292.86 C 231.67 292.50 229.96 292.08 228.24 291.70 C 228.57 291.40 229.21 290.80 229.53 290.50 C 222.84 286.36 217.78 280.25 212.24 274.77 C 208.00 270.36 203.47 266.23 199.43 261.64 C 198.75 261.52 198.07 261.40 197.40 261.29 C 197.12 259.30 196.64 257.34 195.69 255.55 C 195.55 252.96 195.56 250.38 195.57 247.79 Z" />
</g>
<g id="#b6bebfff">
<path fill="#b6bebf" opacity="1.00" d=" M 328.86 259.13 C 328.72 256.50 328.89 253.85 329.85 251.38 C 330.36 256.45 329.65 261.57 330.48 266.61 C 330.23 266.92 329.74 267.53 329.50 267.84 L 329.13 268.35 C 329.12 267.70 329.10 266.40 329.09 265.75 C 329.03 263.91 328.98 262.07 328.92 260.24 L 328.86 259.13 Z" />
</g>
<g id="#eaf8fdff">
<path fill="#eaf8fd" opacity="1.00" d=" M 282.85 253.60 C 283.56 255.43 284.05 257.37 285.00 259.10 C 286.41 260.38 288.05 261.36 289.62 262.44 C 289.85 263.38 290.08 264.32 290.32 265.27 C 292.90 263.92 294.34 267.25 296.35 268.28 C 296.04 269.48 295.31 270.81 295.90 272.05 C 296.57 273.03 297.86 273.24 298.82 273.85 C 301.17 276.30 305.90 274.22 306.97 277.84 C 303.14 277.64 299.32 277.11 295.48 277.28 C 295.35 277.62 295.08 278.32 294.95 278.67 C 301.76 278.98 308.54 279.64 315.34 280.05 C 313.05 280.60 310.79 281.26 308.57 282.04 C 310.17 282.96 312.01 283.24 313.81 283.54 C 313.15 283.74 311.85 284.13 311.20 284.33 C 312.56 285.08 313.91 285.85 315.32 286.52 C 308.84 286.97 302.37 286.30 295.91 285.88 C 295.83 283.95 295.80 282.01 295.56 280.10 C 293.72 278.83 293.04 281.02 293.18 282.48 C 292.85 283.65 292.53 284.81 292.19 285.97 C 289.03 286.16 285.88 286.51 282.78 287.16 C 282.80 275.97 282.65 264.79 282.85 253.60 Z" />
</g>
<g id="#d5eef7ff">
<path fill="#d5eef7" opacity="1.00" d=" M 103.57 254.67 C 105.43 259.07 107.80 263.65 112.05 266.16 C 117.31 271.18 122.28 276.49 127.53 281.53 C 130.63 285.40 135.01 287.99 137.95 292.01 C 143.81 297.83 149.76 303.58 155.43 309.60 C 160.33 313.78 164.11 319.21 169.90 322.31 C 170.05 324.29 170.39 326.26 170.64 328.24 C 170.93 334.49 170.68 340.75 170.84 347.01 C 167.15 347.14 163.45 347.25 159.79 346.82 C 162.52 346.50 165.26 346.15 167.98 345.73 C 163.91 344.29 160.44 341.39 158.50 337.52 C 154.92 335.14 152.36 331.75 149.46 328.69 C 144.34 325.44 141.42 319.91 136.37 316.59 C 134.93 312.57 130.76 311.05 128.07 308.16 C 126.51 303.80 121.51 302.61 119.05 298.97 C 116.74 295.60 112.89 293.65 110.94 290.00 C 109.87 287.94 107.66 287.22 105.48 287.28 C 105.29 285.17 105.02 282.99 103.57 281.32 C 103.07 272.52 103.38 263.53 103.57 254.67 Z" />
</g>
<g id="#eff9fdff">
<path fill="#eff9fd" opacity="1.00" d=" M 195.69 255.55 C 196.64 257.34 197.12 259.30 197.40 261.29 C 198.07 261.40 198.75 261.52 199.43 261.64 C 203.47 266.23 208.00 270.36 212.24 274.77 C 217.78 280.25 222.84 286.36 229.53 290.50 C 229.21 290.80 228.57 291.40 228.24 291.70 C 229.96 292.08 231.67 292.50 233.40 292.86 C 230.82 293.27 228.28 293.84 225.77 294.55 C 230.34 296.08 234.91 293.49 239.59 294.01 C 239.71 294.70 239.95 296.08 240.07 296.77 L 240.23 297.63 C 240.12 299.40 239.99 301.16 239.88 302.93 C 239.22 302.92 237.90 302.89 237.25 302.88 C 236.58 301.11 237.59 297.28 234.80 297.43 C 235.00 299.29 235.20 301.16 235.41 303.02 C 234.79 303.06 233.56 303.13 232.94 303.16 C 232.62 301.08 232.31 299.01 231.98 296.93 C 231.19 296.89 229.61 296.79 228.82 296.74 C 229.53 298.86 230.24 300.99 230.89 303.14 C 227.06 303.07 230.02 296.53 226.26 296.01 C 226.62 298.30 227.11 300.57 227.70 302.82 C 227.33 302.91 226.57 303.08 226.20 303.17 C 226.02 302.59 225.66 301.44 225.48 300.86 C 224.75 298.96 224.90 296.16 222.62 295.34 C 222.89 297.86 223.38 300.38 224.31 302.75 C 220.99 301.79 218.41 299.37 216.11 296.91 C 213.25 293.08 209.62 289.95 206.33 286.51 C 203.17 283.78 199.89 281.09 197.74 277.44 C 197.02 277.99 196.30 278.54 195.58 279.10 C 195.58 271.25 195.53 263.40 195.69 255.55 Z" />
</g>
<g id="#dcdedcff">
<path fill="#dcdedc" opacity="1.00" d=" M 383.26 258.77 C 384.36 257.92 385.41 257.00 386.48 256.12 C 386.26 264.09 386.96 272.04 386.78 280.02 C 386.50 295.67 386.70 311.32 386.62 326.97 C 386.63 330.36 386.75 333.77 386.18 337.13 C 386.18 314.48 386.56 291.83 386.18 269.19 C 385.20 269.48 384.21 269.75 383.23 270.02 C 382.84 270.10 382.04 270.26 381.65 270.33 C 380.21 267.28 380.75 263.92 380.42 260.68 C 381.39 260.08 382.33 259.43 383.26 258.77 Z" />
</g>
<g id="#c72405ff">
<path fill="#c72405" opacity="1.00" d=" M 304.87 259.25 C 307.16 256.77 312.30 254.94 314.03 258.95 C 313.25 260.11 312.47 261.28 311.70 262.45 C 309.01 264.12 302.72 265.43 303.80 260.22 C 304.07 259.98 304.60 259.49 304.87 259.25 Z" />
</g>
<g id="#e9eae6ff">
<path fill="#e9eae6" opacity="1.00" d=" M 314.03 258.95 C 318.92 259.95 323.93 260.31 328.92 260.24 C 328.98 262.07 329.03 263.91 329.09 265.75 C 325.42 265.39 321.74 265.17 318.11 264.52 C 315.92 264.05 313.68 263.83 311.45 263.91 C 311.51 263.54 311.64 262.81 311.70 262.45 C 312.47 261.28 313.25 260.11 314.03 258.95 Z" />
</g>
<g id="#c72301ff">
<path fill="#c72301" opacity="1.00" d=" M 334.95 262.95 C 338.05 259.89 344.92 256.77 347.48 262.02 C 346.59 264.49 344.90 266.53 342.69 267.92 C 340.38 268.92 337.84 269.08 335.37 268.85 C 333.48 267.21 333.74 264.92 334.95 262.95 Z" />
<path fill="#c72301" opacity="1.00" d=" M 374.15 361.98 C 377.61 361.46 381.05 360.84 384.48 360.15 C 384.70 361.05 384.95 361.95 385.23 362.85 C 386.01 365.27 386.95 367.64 387.47 370.14 C 378.83 371.53 370.14 372.79 361.60 374.68 C 359.97 370.73 363.52 367.33 367.12 366.47 C 369.99 365.92 372.14 363.97 374.15 361.98 Z" />
</g>
<g id="#1c5dacff">
<path fill="#1c5dac" opacity="1.00" d=" M 298.70 264.25 C 300.04 262.50 301.98 261.40 303.80 260.22 C 302.72 265.43 309.01 264.12 311.70 262.45 C 311.64 262.81 311.51 263.54 311.45 263.91 C 310.77 265.64 309.25 266.28 307.54 265.53 C 305.13 264.47 303.15 266.48 302.03 268.37 C 301.51 267.54 300.99 266.73 300.47 265.92 C 299.69 265.57 298.90 265.18 298.70 264.25 Z" />
</g>
<g id="#eae9e8ff">
<path fill="#eae9e8" opacity="1.00" d=" M 372.03 263.54 C 374.96 263.04 377.80 262.08 380.42 260.68 C 380.75 263.92 380.21 267.28 381.65 270.33 C 368.68 272.49 355.44 270.52 342.69 267.92 C 344.90 266.53 346.59 264.49 347.48 262.02 C 355.52 263.69 363.85 265.04 372.03 263.54 Z" />
<path fill="#eae9e8" opacity="1.00" d=" M 335.93 346.94 C 337.18 347.05 338.41 347.27 339.62 347.59 C 343.65 349.08 348.08 348.29 352.15 349.69 C 350.09 353.44 348.51 357.45 347.41 361.60 C 345.37 361.36 343.35 361.10 341.35 360.68 C 339.83 359.81 338.22 359.14 336.56 358.63 C 336.18 355.72 335.82 352.81 335.68 349.89 C 335.75 349.15 335.87 347.68 335.93 346.94 Z" />
</g>
<g id="#0e5cb6ff">
<path fill="#0e5cb6" opacity="1.00" d=" M 332.17 264.69 C 333.10 264.11 334.02 263.53 334.95 262.95 C 333.74 264.92 333.48 267.21 335.37 268.85 C 335.02 269.21 334.32 269.95 333.98 270.31 C 333.07 270.39 332.16 270.48 331.26 270.58 C 330.67 269.66 330.08 268.75 329.50 267.84 C 329.74 267.53 330.23 266.92 330.48 266.61 C 330.90 266.13 331.75 265.17 332.17 264.69 Z" />
</g>
<g id="#2776d6ff">
<path fill="#2776d6" opacity="1.00" d=" M 296.35 268.28 C 297.08 266.90 297.86 265.56 298.70 264.25 C 298.90 265.18 299.69 265.57 300.47 265.92 C 300.99 266.73 301.51 267.54 302.03 268.37 C 301.08 270.26 300.09 272.14 298.82 273.85 C 297.86 273.24 296.57 273.03 295.90 272.05 C 295.31 270.81 296.04 269.48 296.35 268.28 Z" />
</g>
<g id="#c5e6f2ff">
<path fill="#c5e6f2" opacity="1.00" d=" M 311.45 263.91 C 313.68 263.83 315.92 264.05 318.11 264.52 C 317.55 264.76 316.45 265.24 315.89 265.48 C 318.39 267.15 320.93 268.76 323.29 270.63 C 323.27 271.30 323.25 271.98 323.25 272.66 C 324.61 272.56 325.97 272.46 327.35 272.37 C 327.38 273.37 327.41 274.37 327.45 275.38 C 327.19 276.58 326.87 277.77 326.53 278.95 C 320.01 278.47 313.51 277.91 306.97 277.84 C 305.90 274.22 301.17 276.30 298.82 273.85 C 300.09 272.14 301.08 270.26 302.03 268.37 C 303.15 266.48 305.13 264.47 307.54 265.53 C 309.25 266.28 310.77 265.64 311.45 263.91 Z" />
</g>
<g id="#a5d9ebff">
<path fill="#a5d9eb" opacity="1.00" d=" M 315.89 265.48 C 316.45 265.24 317.55 264.76 318.11 264.52 C 321.74 265.17 325.42 265.39 329.09 265.75 C 329.10 266.40 329.12 267.70 329.13 268.35 C 328.49 269.67 327.87 270.99 327.35 272.37 C 325.97 272.46 324.61 272.56 323.25 272.66 C 323.25 271.98 323.27 271.30 323.29 270.63 C 320.93 268.76 318.39 267.15 315.89 265.48 Z" />
</g>
<g id="#2d79dcff">
<path fill="#2d79dc" opacity="1.00" d=" M 329.13 268.35 L 329.50 267.84 C 330.08 268.75 330.67 269.66 331.26 270.58 C 332.16 270.48 333.07 270.39 333.98 270.31 C 333.01 271.93 332.22 273.65 331.52 275.40 C 330.15 275.65 328.80 275.64 327.45 275.38 C 327.41 274.37 327.38 273.37 327.35 272.37 C 327.87 270.99 328.49 269.67 329.13 268.35 Z" />
</g>
<g id="#7be1f6ff">
<path fill="#7be1f6" opacity="1.00" d=" M 335.37 268.85 C 337.84 269.08 340.38 268.92 342.69 267.92 C 355.44 270.52 368.68 272.49 381.65 270.33 C 382.04 270.26 382.84 270.10 383.23 270.02 C 383.26 288.77 383.05 307.52 383.19 326.27 C 382.78 326.26 381.96 326.23 381.55 326.22 C 379.50 325.15 377.23 324.68 375.09 323.89 C 374.11 322.50 373.65 320.75 372.35 319.60 C 370.09 317.59 367.28 316.16 365.53 313.61 C 362.81 309.65 358.60 307.16 355.06 304.02 C 352.42 301.96 350.82 298.92 348.25 296.79 C 342.75 292.10 338.90 285.26 331.90 282.54 C 331.93 280.15 331.88 277.76 331.52 275.40 C 332.22 273.65 333.01 271.93 333.98 270.31 C 334.32 269.95 335.02 269.21 335.37 268.85 Z" />
</g>
<g id="#d0f4ffff">
<path fill="#d0f4ff" opacity="1.00" d=" M 195.58 279.10 C 196.30 278.54 197.02 277.99 197.74 277.44 C 199.89 281.09 203.17 283.78 206.33 286.51 C 209.62 289.95 213.25 293.08 216.11 296.91 C 218.41 299.37 220.99 301.79 224.31 302.75 L 224.46 303.00 C 219.03 303.34 213.60 302.92 208.18 302.90 C 205.89 301.16 203.49 299.54 201.54 297.42 C 199.74 295.56 198.25 293.20 195.63 292.41 C 195.61 287.97 195.56 283.54 195.58 279.10 Z" />
</g>
<g id="#5692d1ff">
<path fill="#5692d1" opacity="1.00" d=" M 295.48 277.28 C 299.32 277.11 303.14 277.64 306.97 277.84 C 313.51 277.91 320.01 278.47 326.53 278.95 C 326.38 279.40 326.10 280.29 325.95 280.74 C 322.42 280.40 318.90 279.93 315.34 280.05 C 308.54 279.64 301.76 278.98 294.95 278.67 C 295.08 278.32 295.35 277.62 295.48 277.28 Z" />
</g>
<g id="#e0e9eaff">
<path fill="#e0e9ea" opacity="1.00" d=" M 293.18 282.48 C 293.04 281.02 293.72 278.83 295.56 280.10 C 295.80 282.01 295.83 283.95 295.91 285.88 C 302.37 286.30 308.84 286.97 315.32 286.52 C 317.51 286.77 319.78 287.06 321.60 288.44 C 314.03 289.30 306.60 291.00 299.11 292.31 C 300.58 292.33 302.06 292.33 303.53 292.20 C 303.58 293.88 303.26 295.64 303.72 297.30 C 305.12 298.18 306.93 297.97 308.50 298.36 C 306.38 299.52 303.96 298.89 301.69 298.71 C 301.34 300.45 300.99 302.20 300.64 303.94 C 300.35 305.02 300.05 306.10 299.74 307.18 C 300.35 307.31 301.58 307.59 302.20 307.72 C 301.62 307.79 300.47 307.93 299.90 308.00 C 299.06 311.57 298.44 315.19 297.73 318.78 C 299.00 318.77 300.27 318.76 301.55 318.74 C 301.66 319.24 301.87 320.22 301.98 320.71 C 302.66 320.77 304.03 320.89 304.72 320.94 C 305.19 321.17 306.14 321.62 306.62 321.84 C 306.21 323.17 305.88 324.51 305.61 325.88 L 304.30 325.52 C 304.45 324.65 304.74 322.90 304.89 322.02 C 304.01 322.12 303.14 322.23 302.26 322.34 C 300.53 322.56 298.81 322.80 297.09 323.04 C 296.49 324.48 295.88 325.93 295.26 327.38 C 295.13 326.66 294.88 325.22 294.75 324.50 L 294.94 323.36 C 294.02 323.44 292.18 323.59 291.27 323.67 C 290.94 323.71 290.27 323.79 289.94 323.83 C 290.00 323.51 290.10 322.88 290.15 322.56 C 291.64 321.97 291.67 320.51 291.76 319.15 C 293.18 319.16 294.60 319.18 296.02 319.19 C 296.70 315.62 297.35 312.04 298.18 308.50 C 295.60 309.88 292.70 309.13 289.94 309.16 C 289.45 311.24 289.05 313.34 288.77 315.47 C 288.45 314.28 288.12 313.09 287.79 311.91 C 287.87 311.33 288.04 310.17 288.12 309.59 C 285.38 309.89 282.65 310.24 279.93 310.66 C 279.37 310.23 278.81 309.81 278.24 309.40 C 278.62 307.97 278.86 306.51 279.06 305.06 C 279.44 302.01 279.81 298.96 280.03 295.89 C 278.64 296.20 277.25 296.50 275.89 296.94 C 274.16 296.59 272.43 296.23 270.71 295.87 C 272.57 295.54 274.42 295.17 276.29 294.85 C 276.69 293.16 277.15 291.48 277.68 289.83 C 277.62 291.46 277.54 293.09 277.45 294.72 C 279.13 294.51 280.80 294.31 282.48 294.12 L 283.14 294.03 C 286.46 294.43 286.81 290.94 286.81 288.49 C 285.50 288.36 284.20 288.22 282.91 288.07 L 282.78 287.16 C 285.88 286.51 289.03 286.16 292.19 285.97 C 292.07 286.42 291.81 287.31 291.69 287.76 C 290.55 287.96 289.42 288.14 288.28 288.32 C 288.19 289.93 288.09 291.54 288.01 293.15 C 288.68 293.11 290.02 293.03 290.69 292.99 C 291.45 292.93 292.96 292.80 293.72 292.73 C 293.87 289.31 294.38 285.78 293.18 282.48 M 281.37 296.18 C 281.08 299.12 280.88 302.07 280.86 305.04 C 281.44 304.91 282.59 304.66 283.17 304.53 C 284.52 304.55 285.88 304.67 287.22 304.92 C 285.03 305.23 282.82 305.13 280.62 305.22 C 280.50 306.16 280.25 308.05 280.13 309.00 C 282.98 308.55 285.84 308.22 288.68 307.71 C 288.70 307.07 288.74 305.79 288.76 305.15 C 289.21 302.86 289.63 300.56 290.05 298.26 C 287.89 298.15 285.74 298.03 283.60 297.96 C 283.97 297.04 284.41 296.16 284.94 295.32 C 284.05 296.46 282.64 296.29 281.37 296.18 M 287.18 295.34 C 285.90 296.90 288.90 298.07 289.81 296.75 C 291.02 295.16 288.11 294.14 287.18 295.34 M 291.53 298.26 C 290.65 301.36 291.26 304.70 289.94 307.69 C 292.82 307.29 295.75 307.36 298.58 306.67 C 299.05 304.03 299.57 301.41 300.04 298.78 C 297.20 298.60 294.36 298.44 291.53 298.26 Z" />
</g>
<g id="#cfecf6ff">
<path fill="#cfecf6" opacity="1.00" d=" M 315.34 280.05 C 318.90 279.93 322.42 280.40 325.95 280.74 C 325.18 283.24 324.57 285.79 323.93 288.33 C 323.35 288.36 322.18 288.42 321.60 288.44 C 319.78 287.06 317.51 286.77 315.32 286.52 C 313.91 285.85 312.56 285.08 311.20 284.33 C 311.85 284.13 313.15 283.74 313.81 283.54 C 312.01 283.24 310.17 282.96 308.57 282.04 C 310.79 281.26 313.05 280.60 315.34 280.05 Z" />
</g>
<g id="#cee8f4ff">
<path fill="#cee8f4" opacity="1.00" d=" M 326.56 288.65 C 327.51 285.60 326.82 281.43 329.84 279.46 C 330.25 287.16 330.30 294.90 329.85 302.59 L 329.51 303.20 L 328.33 303.17 C 328.87 299.94 328.94 296.66 328.65 293.40 C 327.49 292.98 326.34 292.57 325.19 292.15 C 324.40 295.09 323.54 298.01 322.71 300.94 C 322.97 301.45 323.50 302.49 323.76 303.01 C 323.34 303.38 322.49 304.14 322.07 304.51 C 321.10 304.19 320.13 303.88 319.16 303.60 C 321.34 300.88 321.90 297.35 321.98 293.97 C 320.47 295.24 319.93 297.19 319.14 298.92 C 319.49 296.08 319.87 293.23 320.32 290.41 C 322.40 289.94 325.01 290.36 326.56 288.65 Z" />
</g>
<g id="#effafeff">
<path fill="#effafe" opacity="1.00" d=" M 103.57 281.32 C 105.02 282.99 105.29 285.17 105.48 287.28 C 107.66 287.22 109.87 287.94 110.94 290.00 C 112.89 293.65 116.74 295.60 119.05 298.97 C 121.51 302.61 126.51 303.80 128.07 308.16 C 130.76 311.05 134.93 312.57 136.37 316.59 C 141.42 319.91 144.34 325.44 149.46 328.69 C 152.36 331.75 154.92 335.14 158.50 337.52 C 160.44 341.39 163.91 344.29 167.98 345.73 C 165.26 346.15 162.52 346.50 159.79 346.82 C 153.59 347.37 147.35 347.00 141.14 346.97 C 138.52 343.88 135.57 341.14 132.52 338.51 C 130.56 335.44 127.82 333.13 124.88 331.04 C 122.77 327.86 120.11 325.23 116.98 323.05 C 113.80 318.20 108.51 315.37 105.46 310.40 C 104.94 310.87 103.89 311.79 103.37 312.26 C 103.41 301.95 103.12 291.62 103.57 281.32 Z" />
</g>
<g id="#d1d4d6ff">
<path fill="#d1d4d6" opacity="1.00" d=" M 293.18 282.48 C 294.38 285.78 293.87 289.31 293.72 292.73 C 292.96 292.80 291.45 292.93 290.69 292.99 C 291.00 291.24 291.31 289.49 291.69 287.76 C 291.81 287.31 292.07 286.42 292.19 285.97 C 292.53 284.81 292.85 283.65 293.18 282.48 Z" />
</g>
<g id="#67cdf3ff">
<path fill="#67cdf3" opacity="1.00" d=" M 331.90 282.54 C 338.90 285.26 342.75 292.10 348.25 296.79 C 350.82 298.92 352.42 301.96 355.06 304.02 C 358.60 307.16 362.81 309.65 365.53 313.61 C 367.28 316.16 370.09 317.59 372.35 319.60 C 373.65 320.75 374.11 322.50 375.09 323.89 C 377.23 324.68 379.50 325.15 381.55 326.22 C 374.75 326.88 367.90 326.76 361.08 327.17 C 358.36 326.66 355.65 326.07 352.96 325.47 C 347.30 318.54 339.35 313.63 334.27 306.15 C 333.41 307.41 332.56 308.69 331.90 310.07 C 331.92 300.89 331.82 291.72 331.90 282.54 Z" />
</g>
<g id="#6292c1ff">
<path fill="#6292c1" opacity="1.00" d=" M 260.99 289.93 C 261.25 289.44 261.79 288.46 262.06 287.97 C 268.75 288.60 275.46 287.55 282.17 287.56 C 282.48 289.73 282.55 291.93 282.48 294.12 C 280.80 294.31 279.13 294.51 277.45 294.72 C 277.54 293.09 277.62 291.46 277.68 289.83 C 277.15 291.48 276.69 293.16 276.29 294.85 C 274.42 295.17 272.57 295.54 270.71 295.87 C 268.09 295.85 268.35 292.46 267.35 290.77 C 267.47 292.55 267.85 294.29 268.35 296.00 C 265.29 296.47 262.24 296.98 259.18 297.33 C 259.16 294.73 258.89 291.87 260.99 289.93 Z" />
</g>
<g id="#bcf0ffff">
<path fill="#bcf0ff" opacity="1.00" d=" M 282.91 288.07 C 284.20 288.22 285.50 288.36 286.81 288.49 C 286.81 290.94 286.46 294.43 283.14 294.03 C 283.09 292.04 283.06 290.05 282.91 288.07 Z" />
</g>
<g id="#d0f3fbff">
<path fill="#d0f3fb" opacity="1.00" d=" M 288.28 288.32 C 289.42 288.14 290.55 287.96 291.69 287.76 C 291.31 289.49 291.00 291.24 290.69 292.99 C 290.02 293.03 288.68 293.11 288.01 293.15 C 288.09 291.54 288.19 289.93 288.28 288.32 Z" />
</g>
<g id="#e9e6e0ff">
<path fill="#e9e6e0" opacity="1.00" d=" M 268.35 296.00 C 267.85 294.29 267.47 292.55 267.35 290.77 C 268.35 292.46 268.09 295.85 270.71 295.87 C 272.43 296.23 274.16 296.59 275.89 296.94 C 275.54 297.30 274.85 298.02 274.50 298.38 C 273.47 298.79 271.15 298.32 271.38 300.05 C 271.25 301.71 271.24 303.38 271.16 305.06 C 271.05 306.74 270.91 308.42 270.79 310.11 C 272.27 309.89 273.78 309.75 275.25 309.37 C 275.31 308.67 275.44 307.26 275.51 306.56 C 275.58 307.27 275.71 308.69 275.78 309.41 C 276.40 309.40 277.63 309.40 278.24 309.40 C 278.81 309.81 279.37 310.23 279.93 310.66 C 279.75 312.70 279.55 314.74 279.34 316.78 C 281.85 316.79 284.38 316.81 286.90 316.83 C 287.18 315.18 287.50 313.56 287.79 311.91 C 288.12 313.09 288.45 314.28 288.77 315.47 L 288.80 316.32 C 289.28 316.61 290.24 317.19 290.72 317.49 C 290.52 319.17 290.33 320.86 290.15 322.56 C 290.10 322.88 290.00 323.51 289.94 323.83 C 289.52 326.53 289.31 329.26 289.02 331.98 C 289.74 332.22 290.46 332.47 291.18 332.74 C 291.63 333.16 292.53 333.98 292.98 334.39 L 293.37 334.88 C 296.13 333.49 299.23 333.30 302.28 333.52 C 302.33 333.81 302.44 334.40 302.50 334.70 C 302.91 334.58 303.72 334.35 304.13 334.24 C 305.35 334.16 306.59 334.10 307.82 334.05 C 308.02 333.74 308.41 333.12 308.60 332.81 C 310.18 333.59 312.58 334.00 312.70 336.19 C 312.07 336.24 310.82 336.33 310.19 336.38 C 303.64 336.74 296.85 336.37 290.53 338.27 C 288.65 337.53 286.64 337.46 284.68 337.91 C 284.06 337.99 282.81 338.16 282.18 338.24 C 280.80 342.07 280.04 346.09 278.88 349.99 L 277.99 350.03 C 278.09 346.29 278.15 342.54 278.12 338.79 C 269.21 337.88 260.31 340.34 251.40 339.60 C 247.14 338.24 243.11 336.20 239.10 334.22 C 239.77 333.47 240.45 332.71 241.13 331.97 C 240.96 331.35 240.61 330.13 240.44 329.52 C 239.83 327.20 240.13 324.24 237.86 322.76 C 237.90 325.44 238.50 328.06 239.30 330.61 C 238.92 330.94 238.16 331.60 237.78 331.93 C 236.71 331.09 235.60 330.30 234.50 329.52 C 234.55 329.27 234.67 328.75 234.72 328.50 C 234.23 328.61 233.23 328.84 232.73 328.95 C 231.62 326.76 230.69 324.42 230.44 321.96 C 230.27 320.28 232.00 318.90 231.54 317.21 C 230.89 314.06 230.00 310.97 229.41 307.82 C 234.35 307.36 238.87 309.72 243.62 310.61 C 243.51 309.74 243.40 308.88 243.30 308.02 C 243.60 307.75 244.19 307.20 244.49 306.93 C 244.80 308.64 245.11 310.35 245.43 312.07 C 245.72 311.78 246.32 311.19 246.61 310.90 C 246.84 308.84 247.08 306.78 247.24 304.72 C 247.36 307.21 247.57 309.69 247.73 312.17 C 248.66 312.39 249.60 312.60 250.54 312.83 C 250.50 308.65 250.37 304.47 250.65 300.31 C 250.47 300.65 250.11 301.34 249.93 301.68 C 249.23 301.80 247.85 302.04 247.16 302.16 C 247.01 300.61 247.32 298.52 245.16 298.58 C 245.04 299.99 244.92 301.41 244.80 302.84 L 243.96 303.24 C 243.40 302.38 242.85 301.52 242.30 300.67 C 241.63 299.64 240.92 298.64 240.23 297.63 L 240.07 296.77 C 240.47 296.83 241.27 296.95 241.67 297.02 C 244.90 297.34 248.10 298.54 251.38 297.99 C 251.72 297.96 252.39 297.89 252.73 297.85 C 254.87 297.63 257.03 297.53 259.18 297.33 C 262.24 296.98 265.29 296.47 268.35 296.00 M 262.14 298.37 C 261.65 300.29 261.71 302.28 261.76 304.25 C 264.31 304.38 266.87 304.45 269.43 304.49 C 269.67 302.18 269.89 299.87 270.09 297.56 C 267.43 297.74 264.79 298.13 262.14 298.37 M 252.91 300.86 C 254.84 301.31 256.89 301.62 258.85 301.08 L 259.28 301.79 C 256.76 302.20 254.22 302.02 251.70 301.79 C 252.13 305.40 251.71 309.05 252.09 312.66 C 254.66 312.13 257.26 311.80 259.88 311.70 C 259.98 308.37 260.20 305.04 259.93 301.72 C 260.70 300.33 260.48 299.49 259.26 299.19 C 257.20 299.59 254.03 298.49 252.91 300.86 M 261.61 304.67 C 261.63 306.88 261.58 309.09 261.44 311.31 C 263.99 311.03 266.55 310.71 269.09 310.28 C 269.20 308.47 269.31 306.67 269.39 304.87 C 266.79 304.82 264.20 304.74 261.61 304.67 M 235.20 310.08 C 235.77 312.26 235.66 314.84 237.20 316.62 C 237.05 318.35 236.94 320.08 236.83 321.82 C 237.39 321.87 238.51 321.96 239.07 322.00 C 238.85 320.46 239.18 318.57 237.90 317.41 C 237.62 314.90 239.06 310.18 235.20 310.08 M 270.71 311.71 C 270.52 313.33 270.34 314.96 270.15 316.58 C 272.67 316.63 275.18 316.71 277.70 316.80 C 277.86 314.80 278.05 312.81 278.26 310.82 C 275.74 311.15 273.24 311.65 270.71 311.71 M 238.91 311.62 C 239.41 315.21 240.24 318.74 240.61 322.35 C 241.11 322.52 242.11 322.87 242.60 323.04 C 242.16 320.04 241.80 317.02 241.65 313.99 C 242.10 312.31 240.49 311.12 238.91 311.62 M 262.87 312.81 C 261.67 312.81 261.11 313.39 261.22 314.54 L 261.77 314.52 C 261.01 317.90 261.54 321.65 261.06 325.20 C 263.49 325.03 265.93 324.80 268.35 324.45 L 268.37 324.66 C 268.95 320.46 268.21 316.19 268.91 311.98 C 266.89 312.26 264.87 312.46 262.87 312.81 M 242.98 312.67 C 243.62 316.36 244.09 320.08 244.34 323.82 C 245.09 324.17 245.85 324.52 246.60 324.87 C 246.49 321.16 246.10 317.45 246.34 313.74 C 245.34 312.99 244.22 312.63 242.98 312.67 M 248.10 314.20 L 248.13 314.87 C 247.71 318.44 248.03 322.06 248.33 325.62 C 248.88 325.79 249.99 326.11 250.54 326.27 C 250.34 322.56 251.58 318.32 250.00 314.95 L 249.92 314.22 C 249.46 314.21 248.55 314.20 248.10 314.20 M 252.03 314.56 C 252.23 318.47 251.64 322.49 252.61 326.33 C 254.94 325.94 257.31 325.77 259.63 325.31 C 259.58 324.71 259.47 323.49 259.41 322.88 C 258.91 323.02 257.89 323.28 257.39 323.42 C 255.82 321.61 253.62 319.33 255.56 316.89 C 255.48 317.94 255.38 318.99 255.27 320.04 C 256.29 321.43 257.43 323.33 259.53 322.78 C 259.65 320.02 259.73 317.27 259.72 314.51 C 257.16 314.53 254.59 314.54 252.03 314.56 M 241.13 324.18 C 241.33 326.33 240.65 330.34 243.38 330.83 C 243.24 328.92 243.08 327.03 242.90 325.15 C 242.46 324.90 241.57 324.42 241.13 324.18 M 283.91 336.32 C 284.37 336.19 285.29 335.91 285.75 335.77 C 286.46 331.92 286.41 327.98 286.51 324.08 C 284.68 327.86 284.69 332.25 283.91 336.32 M 276.64 325.39 C 276.36 329.24 275.65 333.05 275.21 336.88 C 275.62 336.88 276.45 336.88 276.87 336.88 C 277.14 333.05 277.37 329.22 277.43 325.38 C 277.24 325.38 276.84 325.39 276.64 325.39 M 236.23 326.31 C 235.33 327.28 235.77 330.37 237.47 329.81 C 237.98 328.75 237.52 326.46 236.23 326.31 M 245.13 326.20 C 244.44 327.47 244.51 328.73 245.34 330.00 C 244.46 331.12 244.70 333.31 246.10 333.91 C 247.58 333.43 247.32 331.03 246.52 330.04 C 247.30 328.90 247.01 325.74 245.13 326.20 M 248.79 327.38 C 248.89 329.69 248.55 332.01 248.75 334.32 C 249.69 335.29 249.82 336.58 250.06 337.85 C 250.80 334.69 250.82 331.43 250.76 328.21 C 250.10 327.93 249.44 327.65 248.79 327.38 M 252.13 327.84 C 252.63 330.76 251.41 334.34 253.57 336.72 C 255.52 336.37 257.56 335.90 259.53 336.55 C 259.27 333.36 259.58 330.17 259.38 326.99 C 256.96 327.26 254.54 327.50 252.13 327.84 M 260.91 326.87 C 260.72 330.05 260.61 333.23 260.56 336.42 C 263.14 336.67 265.75 336.81 268.35 336.86 C 268.44 333.32 268.11 329.79 268.22 326.26 C 265.77 326.31 263.33 326.54 260.91 326.87 Z" />
</g>
<g id="#ecf5f8ff">
<path fill="#ecf5f8" opacity="1.00" d=" M 313.49 291.15 C 315.76 290.92 318.04 290.67 320.32 290.41 C 319.87 293.23 319.49 296.08 319.14 298.92 C 319.93 297.19 320.47 295.24 321.98 293.97 C 321.90 297.35 321.34 300.88 319.16 303.60 C 317.50 303.32 315.83 303.18 314.16 303.02 C 313.60 303.62 313.04 304.23 312.48 304.84 C 312.40 304.31 312.23 303.26 312.15 302.73 C 311.02 303.77 309.91 304.82 308.83 305.89 C 309.72 303.41 309.70 300.77 309.55 298.18 C 309.28 298.22 308.76 298.32 308.50 298.36 C 306.93 297.97 305.12 298.18 303.72 297.30 C 303.26 295.64 303.58 293.88 303.53 292.20 C 306.64 291.76 309.77 291.41 312.92 291.29 C 312.03 294.45 311.46 297.69 311.35 300.98 C 311.78 297.65 312.37 294.33 313.49 291.15 Z" />
<path fill="#ecf5f8" opacity="1.00" d=" M 308.60 307.31 C 309.93 307.38 311.26 307.27 312.59 307.18 C 311.83 309.93 310.90 312.62 309.96 315.31 C 309.88 313.10 309.76 310.91 309.61 308.71 C 308.62 312.43 308.01 316.25 306.91 319.95 L 305.44 319.99 C 306.53 315.77 307.27 311.47 308.60 307.31 Z" />
</g>
<g id="#dcf1f9ff">
<path fill="#dcf1f9" opacity="1.00" d=" M 325.19 292.15 C 326.34 292.57 327.49 292.98 328.65 293.40 C 328.94 296.66 328.87 299.94 328.33 303.17 C 326.81 303.11 325.28 303.06 323.76 303.01 C 323.50 302.49 322.97 301.45 322.71 300.94 C 323.54 298.01 324.40 295.09 325.19 292.15 Z" />
</g>
<g id="#a6ebfeff">
<path fill="#a6ebfe" opacity="1.00" d=" M 195.63 292.41 C 198.25 293.20 199.74 295.56 201.54 297.42 C 203.49 299.54 205.89 301.16 208.18 302.90 C 204.03 303.11 199.88 303.16 195.74 302.91 C 195.46 299.42 195.58 295.91 195.63 292.41 Z" />
</g>
<g id="#cae8f4ff">
<path fill="#cae8f4" opacity="1.00" d=" M 240.97 293.35 C 244.30 292.84 247.65 292.31 251.03 292.41 C 251.13 294.26 251.26 296.13 251.38 297.99 C 248.10 298.54 244.90 297.34 241.67 297.02 C 241.43 295.79 241.20 294.57 240.97 293.35 Z" />
</g>
<g id="#76aec6ff">
<path fill="#76aec6" opacity="1.00" d=" M 281.37 296.18 C 282.64 296.29 284.05 296.46 284.94 295.32 C 284.41 296.16 283.97 297.04 283.60 297.96 C 283.44 300.15 283.35 302.34 283.17 304.53 C 282.59 304.66 281.44 304.91 280.86 305.04 C 280.88 302.07 281.08 299.12 281.37 296.18 Z" />
</g>
<g id="#b1effbff">
<path fill="#b1effb" opacity="1.00" d=" M 287.18 295.34 C 288.11 294.14 291.02 295.16 289.81 296.75 C 288.90 298.07 285.90 296.90 287.18 295.34 Z" />
</g>
<g id="#9b9d9fff">
<path fill="#9b9d9f" opacity="1.00" d=" M 222.62 295.34 C 224.90 296.16 224.75 298.96 225.48 300.86 C 225.19 301.33 224.60 302.28 224.31 302.75 C 223.38 300.38 222.89 297.86 222.62 295.34 Z" />
</g>
<g id="#6293c5ff">
<path fill="#6293c5" opacity="1.00" d=" M 275.89 296.94 C 277.25 296.50 278.64 296.20 280.03 295.89 C 279.81 298.96 279.44 302.01 279.06 305.06 C 276.42 305.16 273.79 305.16 271.16 305.06 C 271.24 303.38 271.25 301.71 271.38 300.05 C 271.15 298.32 273.47 298.79 274.50 298.38 C 274.85 298.02 275.54 297.30 275.89 296.94 Z" />
</g>
<g id="#989e9aff">
<path fill="#989e9a" opacity="1.00" d=" M 226.26 296.01 C 230.02 296.53 227.06 303.07 230.89 303.14 C 230.24 300.99 229.53 298.86 228.82 296.74 C 229.61 296.79 231.19 296.89 231.98 296.93 C 232.31 299.01 232.62 301.08 232.94 303.16 C 233.56 303.13 234.79 303.06 235.41 303.02 C 235.20 301.16 235.00 299.29 234.80 297.43 C 237.59 297.28 236.58 301.11 237.25 302.88 C 237.90 302.89 239.22 302.92 239.88 302.93 C 239.99 301.16 240.12 299.40 240.23 297.63 C 240.92 298.64 241.63 299.64 242.30 300.67 C 241.79 302.55 241.43 304.47 241.18 306.41 C 239.52 306.50 237.49 305.84 236.27 307.33 C 235.05 306.54 233.83 305.76 232.62 304.96 C 232.53 305.49 232.34 306.55 232.25 307.08 C 231.19 306.18 230.19 305.21 229.26 304.18 C 228.84 305.26 228.65 306.59 227.44 307.08 C 227.02 305.77 226.61 304.47 226.20 303.17 C 226.57 303.08 227.33 302.91 227.70 302.82 C 227.11 300.57 226.62 298.30 226.26 296.01 Z" />
</g>
<g id="#6191c3ff">
<path fill="#6191c3" opacity="1.00" d=" M 262.14 298.37 C 264.79 298.13 267.43 297.74 270.09 297.56 C 269.89 299.87 269.67 302.18 269.43 304.49 C 266.87 304.45 264.31 304.38 261.76 304.25 C 261.71 302.28 261.65 300.29 262.14 298.37 Z" />
</g>
<g id="#da3f35ff">
<path fill="#da3f35" opacity="1.00" d=" M 283.60 297.96 C 285.74 298.03 287.89 298.15 290.05 298.26 C 289.63 300.56 289.21 302.86 288.76 305.15 C 288.37 305.10 287.60 304.98 287.22 304.92 C 285.88 304.67 284.52 304.55 283.17 304.53 C 283.35 302.34 283.44 300.15 283.60 297.96 Z" />
</g>
<g id="#d83e37ff">
<path fill="#d83e37" opacity="1.00" d=" M 308.50 298.36 C 308.76 298.32 309.28 298.22 309.55 298.18 C 309.70 300.77 309.72 303.41 308.83 305.89 C 305.93 305.60 303.05 306.24 300.18 306.53 C 300.30 305.89 300.52 304.59 300.64 303.94 C 300.99 302.20 301.34 300.45 301.69 298.71 C 303.96 298.89 306.38 299.52 308.50 298.36 Z" />
</g>
<g id="#bee5f2ff">
<path fill="#bee5f2" opacity="1.00" d=" M 252.91 300.86 C 254.03 298.49 257.20 299.59 259.26 299.19 C 259.16 299.66 258.95 300.61 258.85 301.08 C 256.89 301.62 254.84 301.31 252.91 300.86 Z" />
</g>
<g id="#a49f9bff">
<path fill="#a49f9b" opacity="1.00" d=" M 259.26 299.19 C 260.48 299.49 260.70 300.33 259.93 301.72 L 259.28 301.79 L 258.85 301.08 C 258.95 300.61 259.16 299.66 259.26 299.19 Z" />
</g>
<g id="#de443cff">
<path fill="#de443c" opacity="1.00" d=" M 291.53 298.26 C 294.36 298.44 297.20 298.60 300.04 298.78 C 299.57 301.41 299.05 304.03 298.58 306.67 C 295.75 307.36 292.82 307.29 289.94 307.69 C 291.26 304.70 290.65 301.36 291.53 298.26 Z" />
</g>
<g id="#efe061ff">
<path fill="#efe061" opacity="1.00" d=" M 249.93 301.68 C 250.11 301.34 250.47 300.65 250.65 300.31 C 250.37 304.47 250.50 308.65 250.54 312.83 C 249.60 312.60 248.66 312.39 247.73 312.17 C 247.57 309.69 247.36 307.21 247.24 304.72 C 247.22 304.08 247.18 302.80 247.16 302.16 C 247.85 302.04 249.23 301.80 249.93 301.68 Z" />
</g>
<g id="#eee067ff">
<path fill="#eee067" opacity="1.00" d=" M 251.70 301.79 C 254.22 302.02 256.76 302.20 259.28 301.79 L 259.93 301.72 C 260.20 305.04 259.98 308.37 259.88 311.70 C 257.26 311.80 254.66 312.13 252.09 312.66 C 251.71 309.05 252.13 305.40 251.70 301.79 Z" />
</g>
<g id="#949696ff">
<path fill="#949696" opacity="1.00" d=" M 243.96 303.24 L 244.80 302.84 C 246.17 303.27 246.96 305.88 245.16 306.25 C 243.85 305.61 243.45 304.61 243.96 303.24 Z" />
</g>
<g id="#989898ff">
<path fill="#989898" opacity="1.00" d=" M 308.83 305.89 C 309.91 304.82 311.02 303.77 312.15 302.73 C 312.23 303.26 312.40 304.31 312.48 304.84 C 313.04 304.23 313.60 303.62 314.16 303.02 C 315.83 303.18 317.50 303.32 319.16 303.60 C 320.13 303.88 321.10 304.19 322.07 304.51 C 322.49 304.14 323.34 303.38 323.76 303.01 C 325.28 303.06 326.81 303.11 328.33 303.17 L 329.51 303.20 C 329.44 303.97 329.31 305.52 329.25 306.29 C 326.89 306.51 324.53 306.62 322.17 306.50 C 322.10 306.20 321.95 305.59 321.87 305.29 C 320.91 305.48 319.95 305.67 318.99 305.85 C 318.54 305.92 317.65 306.06 317.21 306.13 L 315.92 306.28 C 313.55 306.42 311.17 306.30 308.83 305.89 Z" />
</g>
<g id="#3e3b39ff">
<path fill="#3e3b39" opacity="1.00" d=" M 261.61 304.67 C 264.20 304.74 266.79 304.82 269.39 304.87 C 269.31 306.67 269.20 308.47 269.09 310.28 C 266.55 310.71 263.99 311.03 261.44 311.31 C 261.58 309.09 261.63 306.88 261.61 304.67 Z" />
</g>
<g id="#393836ff">
<path fill="#393836" opacity="1.00" d=" M 271.16 305.06 C 273.79 305.16 276.42 305.16 279.06 305.06 C 278.86 306.51 278.62 307.97 278.24 309.40 C 277.63 309.40 276.40 309.40 275.78 309.41 C 275.71 308.69 275.58 307.27 275.51 306.56 C 275.44 307.26 275.31 308.67 275.25 309.37 C 273.78 309.75 272.27 309.89 270.79 310.11 C 270.91 308.42 271.05 306.74 271.16 305.06 Z" />
</g>
<g id="#3d3a38ff">
<path fill="#3d3a38" opacity="1.00" d=" M 287.22 304.92 C 287.60 304.98 288.37 305.10 288.76 305.15 C 288.74 305.79 288.70 307.07 288.68 307.71 C 285.84 308.22 282.98 308.55 280.13 309.00 C 280.25 308.05 280.50 306.16 280.62 305.22 C 282.82 305.13 285.03 305.23 287.22 304.92 Z" />
</g>
<g id="#f1f1f1ff">
<path fill="#f1f1f1" opacity="1.00" d=" M 318.99 305.85 C 319.95 305.67 320.91 305.48 321.87 305.29 C 321.95 305.59 322.10 306.20 322.17 306.50 C 320.73 310.61 319.57 314.82 318.28 318.98 C 314.63 315.24 318.21 310.06 318.99 305.85 Z" />
</g>
<g id="#e0e1e0ff">
<path fill="#e0e1e0" opacity="1.00" d=" M 315.92 306.28 L 317.21 306.13 C 316.13 309.81 316.12 314.11 313.32 317.02 C 313.55 313.32 314.49 309.69 315.92 306.28 Z" />
</g>
<g id="#53b9efff">
<path fill="#53b9ef" opacity="1.00" d=" M 331.90 310.07 C 332.56 308.69 333.41 307.41 334.27 306.15 C 339.35 313.63 347.30 318.54 352.96 325.47 C 355.65 326.07 358.36 326.66 361.08 327.17 C 351.34 327.50 341.62 328.38 331.87 328.51 C 331.99 322.37 331.84 316.22 331.90 310.07 Z" />
<path fill="#53b9ef" opacity="1.00" d=" M 271.98 356.95 C 273.38 355.67 275.11 355.18 276.98 355.55 C 277.22 355.89 277.72 356.57 277.96 356.91 C 275.97 356.99 273.97 356.98 271.98 356.95 Z" />
</g>
<g id="#de433cff">
<path fill="#de433c" opacity="1.00" d=" M 302.20 307.72 C 304.33 307.52 306.45 307.03 308.60 307.31 C 307.27 311.47 306.53 315.77 305.44 319.99 C 305.26 320.23 304.90 320.71 304.72 320.94 C 304.03 320.89 302.66 320.77 301.98 320.71 C 301.87 320.22 301.66 319.24 301.55 318.74 C 300.27 318.76 299.00 318.77 297.73 318.78 C 298.44 315.19 299.06 311.57 299.90 308.00 C 300.47 307.93 301.62 307.79 302.20 307.72 Z" />
</g>
<g id="#e9e9e9ff">
<path fill="#e9e9e9" opacity="1.00" d=" M 227.00 307.77 C 228.61 309.31 228.75 311.69 229.49 313.69 C 229.84 315.27 230.82 316.87 230.26 318.52 C 227.21 316.28 227.11 311.35 227.00 307.77 Z" />
</g>
<g id="#de443dff">
<path fill="#de443d" opacity="1.00" d=" M 289.94 309.16 C 292.70 309.13 295.60 309.88 298.18 308.50 C 297.35 312.04 296.70 315.62 296.02 319.19 C 294.60 319.18 293.18 319.16 291.76 319.15 C 291.67 320.51 291.64 321.97 290.15 322.56 C 290.33 320.86 290.52 319.17 290.72 317.49 C 290.24 317.19 289.28 316.61 288.80 316.32 L 288.77 315.47 C 289.05 313.34 289.45 311.24 289.94 309.16 Z" />
</g>
<g id="#cf3633ff">
<path fill="#cf3633" opacity="1.00" d=" M 306.91 319.95 C 308.01 316.25 308.62 312.43 309.61 308.71 C 309.76 310.91 309.88 313.10 309.96 315.31 C 309.97 316.85 310.03 318.40 310.09 319.95 C 309.30 319.95 307.70 319.95 306.91 319.95 Z" />
<path fill="#cf3633" opacity="1.00" d=" M 306.62 321.84 C 307.45 321.79 309.13 321.70 309.96 321.65 C 310.58 325.41 311.01 329.54 308.60 332.81 C 308.41 333.12 308.02 333.74 307.82 334.05 C 306.59 334.10 305.35 334.16 304.13 334.24 C 304.68 331.46 305.30 328.69 305.61 325.88 C 305.88 324.51 306.21 323.17 306.62 321.84 Z" />
</g>
<g id="#d2f4ffff">
<path fill="#d2f4ff" opacity="1.00" d=" M 105.46 310.40 C 108.51 315.37 113.80 318.20 116.98 323.05 C 120.11 325.23 122.77 327.86 124.88 331.04 C 127.82 333.13 130.56 335.44 132.52 338.51 C 135.57 341.14 138.52 343.88 141.14 346.97 C 136.83 347.14 132.50 347.28 128.21 346.86 C 123.54 345.80 120.89 341.51 117.42 338.61 C 114.67 336.29 113.08 332.74 109.86 331.00 C 107.66 329.86 106.85 327.37 105.64 325.39 C 104.88 325.92 104.13 326.45 103.37 326.98 C 103.41 322.07 103.32 317.16 103.37 312.26 C 103.89 311.79 104.94 310.87 105.46 310.40 Z" />
</g>
<g id="#d2cfd0ff">
<path fill="#d2cfd0" opacity="1.00" d=" M 235.20 310.08 C 239.06 310.18 237.62 314.90 237.90 317.41 L 237.20 316.62 C 235.66 314.84 235.77 312.26 235.20 310.08 Z" />
</g>
<g id="#3b3a39ff">
<path fill="#3b3a39" opacity="1.00" d=" M 279.93 310.66 C 282.65 310.24 285.38 309.89 288.12 309.59 C 288.04 310.17 287.87 311.33 287.79 311.91 C 287.50 313.56 287.18 315.18 286.90 316.83 C 284.38 316.81 281.85 316.79 279.34 316.78 C 279.55 314.74 279.75 312.70 279.93 310.66 Z" />
</g>
<g id="#e65caaff">
<path fill="#e65caa" opacity="1.00" d=" M 238.91 311.62 C 240.49 311.12 242.10 312.31 241.65 313.99 C 241.80 317.02 242.16 320.04 242.60 323.04 C 242.11 322.87 241.11 322.52 240.61 322.35 C 240.24 318.74 239.41 315.21 238.91 311.62 Z" />
</g>
<g id="#33312bff">
<path fill="#33312b" opacity="1.00" d=" M 262.87 312.81 C 264.87 312.46 266.89 312.26 268.91 311.98 C 268.21 316.19 268.95 320.46 268.37 324.66 L 268.35 324.45 C 268.02 321.40 267.63 318.37 267.03 315.38 L 266.93 314.81 C 265.68 314.22 264.38 314.10 263.03 314.46 L 261.77 314.52 L 261.22 314.54 C 261.11 313.39 261.67 312.81 262.87 312.81 Z" />
</g>
<g id="#e261a9ff">
<path fill="#e261a9" opacity="1.00" d=" M 242.98 312.67 C 244.22 312.63 245.34 312.99 246.34 313.74 C 246.10 317.45 246.49 321.16 246.60 324.87 C 245.85 324.52 245.09 324.17 244.34 323.82 C 244.09 320.08 243.62 316.36 242.98 312.67 Z" />
</g>
<g id="#e6d368ff">
<path fill="#e6d368" opacity="1.00" d=" M 248.10 314.20 C 248.55 314.20 249.46 314.21 249.92 314.22 L 250.00 314.95 C 249.53 314.93 248.60 314.89 248.13 314.87 L 248.10 314.20 Z" />
</g>
<g id="#e46fabff">
<path fill="#e46fab" opacity="1.00" d=" M 248.13 314.87 C 248.60 314.89 249.53 314.93 250.00 314.95 C 251.58 318.32 250.34 322.56 250.54 326.27 C 249.99 326.11 248.88 325.79 248.33 325.62 C 248.03 322.06 247.71 318.44 248.13 314.87 Z" />
</g>
<g id="#68b649ff">
<path fill="#68b649" opacity="1.00" d=" M 252.03 314.56 C 254.59 314.54 257.16 314.53 259.72 314.51 C 259.73 317.27 259.65 320.02 259.53 322.78 C 257.43 323.33 256.29 321.43 255.27 320.04 C 255.38 318.99 255.48 317.94 255.56 316.89 C 253.62 319.33 255.82 321.61 257.39 323.42 C 257.89 323.28 258.91 323.02 259.41 322.88 C 259.47 323.49 259.58 324.71 259.63 325.31 C 257.31 325.77 254.94 325.94 252.61 326.33 C 251.64 322.49 252.23 318.47 252.03 314.56 Z" />
</g>
<g id="#6ab84aff">
<path fill="#6ab84a" opacity="1.00" d=" M 261.77 314.52 L 263.03 314.46 C 263.96 315.66 265.64 316.10 267.03 315.38 C 267.63 318.37 268.02 321.40 268.35 324.45 C 265.93 324.80 263.49 325.03 261.06 325.20 C 261.54 321.65 261.01 317.90 261.77 314.52 Z" />
</g>
<g id="#8ac572ff">
<path fill="#8ac572" opacity="1.00" d=" M 263.03 314.46 C 264.38 314.10 265.68 314.22 266.93 314.81 L 267.03 315.38 C 265.64 316.10 263.96 315.66 263.03 314.46 Z" />
</g>
<g id="#e193c0ff">
<path fill="#e193c0" opacity="1.00" d=" M 237.20 316.62 L 237.90 317.41 C 239.18 318.57 238.85 320.46 239.07 322.00 C 238.51 321.96 237.39 321.87 236.83 321.82 C 236.94 320.08 237.05 318.35 237.20 316.62 Z" />
</g>
<g id="#a79b9cff">
<path fill="#a79b9c" opacity="1.00" d=" M 310.09 319.95 C 312.38 319.68 314.64 319.20 316.95 319.10 C 316.99 319.55 317.05 320.43 317.09 320.87 C 314.71 321.16 312.33 321.32 309.96 321.65 C 309.13 321.70 307.45 321.79 306.62 321.84 C 306.14 321.62 305.19 321.17 304.72 320.94 C 304.90 320.71 305.26 320.23 305.44 319.99 L 306.91 319.95 C 307.70 319.95 309.30 319.95 310.09 319.95 Z" />
</g>
<g id="#ca513eff">
<path fill="#ca513e" opacity="1.00" d=" M 302.26 322.34 C 303.14 322.23 304.01 322.12 304.89 322.02 C 304.74 322.90 304.45 324.65 304.30 325.52 L 305.61 325.88 C 305.30 328.69 304.68 331.46 304.13 334.24 C 303.72 334.35 302.91 334.58 302.50 334.70 C 302.44 334.40 302.33 333.81 302.28 333.52 C 302.67 333.15 303.45 332.41 303.84 332.04 C 301.64 329.28 302.43 325.59 302.26 322.34 Z" />
</g>
<g id="#e783b7ff">
<path fill="#e783b7" opacity="1.00" d=" M 237.86 322.76 C 240.13 324.24 239.83 327.20 240.44 329.52 L 239.30 330.61 C 238.50 328.06 237.90 325.44 237.86 322.76 Z" />
</g>
<g id="#5cc0cdff">
<path fill="#5cc0cd" opacity="1.00" d=" M 297.09 323.04 C 298.81 322.80 300.53 322.56 302.26 322.34 C 302.43 325.59 301.64 329.28 303.84 332.04 C 303.45 332.41 302.67 333.15 302.28 333.52 C 299.23 333.30 296.13 333.49 293.37 334.88 L 292.98 334.39 C 293.40 331.07 293.66 327.69 294.75 324.50 C 294.88 325.22 295.13 326.66 295.26 327.38 C 295.88 325.93 296.49 324.48 297.09 323.04 Z" />
</g>
<g id="#9d9b9eff">
<path fill="#9d9b9e" opacity="1.00" d=" M 314.46 322.95 C 315.77 326.50 313.61 330.30 313.17 333.89 L 312.12 333.41 C 311.12 329.84 313.52 326.34 314.46 322.95 Z" />
</g>
<g id="#e37eb8ff">
<path fill="#e37eb8" opacity="1.00" d=" M 241.13 324.18 C 241.57 324.42 242.46 324.90 242.90 325.15 C 243.08 327.03 243.24 328.92 243.38 330.83 C 240.65 330.34 241.33 326.33 241.13 324.18 Z" />
</g>
<g id="#dd3a2aff">
<path fill="#dd3a2a" opacity="1.00" d=" M 289.02 331.98 C 289.31 329.26 289.52 326.53 289.94 323.83 C 290.27 323.79 290.94 323.71 291.27 323.67 C 291.22 326.69 291.10 329.72 291.18 332.74 C 290.46 332.47 289.74 332.22 289.02 331.98 Z" />
</g>
<g id="#50bfc8ff">
<path fill="#50bfc8" opacity="1.00" d=" M 291.27 323.67 C 292.18 323.59 294.02 323.44 294.94 323.36 L 294.75 324.50 C 293.66 327.69 293.40 331.07 292.98 334.39 C 292.53 333.98 291.63 333.16 291.18 332.74 C 291.10 329.72 291.22 326.69 291.27 323.67 Z" />
</g>
<g id="#acedfeff">
<path fill="#acedfe" opacity="1.00" d=" M 103.37 326.98 C 104.13 326.45 104.88 325.92 105.64 325.39 C 106.85 327.37 107.66 329.86 109.86 331.00 C 113.08 332.74 114.67 336.29 117.42 338.61 C 120.89 341.51 123.54 345.80 128.21 346.86 C 120.03 347.33 111.83 346.90 103.64 346.91 C 103.13 340.28 103.41 333.62 103.37 326.98 Z" />
</g>
<g id="#d39abcff">
<path fill="#d39abc" opacity="1.00" d=" M 236.23 326.31 C 237.52 326.46 237.98 328.75 237.47 329.81 C 235.77 330.37 235.33 327.28 236.23 326.31 Z" />
</g>
<g id="#e869b0ff">
<path fill="#e869b0" opacity="1.00" d=" M 245.13 326.20 C 247.01 325.74 247.30 328.90 246.52 330.04 C 246.22 330.03 245.63 330.01 245.34 330.00 C 244.51 328.73 244.44 327.47 245.13 326.20 Z" />
</g>
<g id="#5baa3cff">
<path fill="#5baa3c" opacity="1.00" d=" M 248.79 327.38 C 249.44 327.65 250.10 327.93 250.76 328.21 C 250.82 331.43 250.80 334.69 250.06 337.85 C 249.82 336.58 249.69 335.29 248.75 334.32 C 248.55 332.01 248.89 329.69 248.79 327.38 Z" />
</g>
<g id="#68b847ff">
<path fill="#68b847" opacity="1.00" d=" M 252.13 327.84 C 254.54 327.50 256.96 327.26 259.38 326.99 C 259.58 330.17 259.27 333.36 259.53 336.55 C 257.56 335.90 255.52 336.37 253.57 336.72 C 251.41 334.34 252.63 330.76 252.13 327.84 Z" />
</g>
<g id="#67b848ff">
<path fill="#67b848" opacity="1.00" d=" M 260.91 326.87 C 263.33 326.54 265.77 326.31 268.22 326.26 C 268.11 329.79 268.44 333.32 268.35 336.86 C 265.75 336.81 263.14 336.67 260.56 336.42 C 260.61 333.23 260.72 330.05 260.91 326.87 Z" />
</g>
<g id="#b2a3adff">
<path fill="#b2a3ad" opacity="1.00" d=" M 245.34 330.00 C 245.63 330.01 246.22 330.03 246.52 330.04 C 247.32 331.03 247.58 333.43 246.10 333.91 C 244.70 333.31 244.46 331.12 245.34 330.00 Z" />
</g>
<g id="#ff0504ff">
<path fill="#ff0504" opacity="1.00" d=" M 373.32 335.56 C 371.47 332.04 377.49 333.30 379.43 333.48 C 379.47 336.80 375.45 335.44 373.32 335.56 Z" />
</g>
<g id="#03ff09ff">
<path fill="#03ff09" opacity="1.00" d=" M 335.31 334.51 C 336.94 334.18 338.62 334.23 340.27 334.38 C 340.29 334.89 340.31 335.90 340.33 336.41 C 338.64 336.49 334.01 337.64 335.31 334.51 Z" />
</g>
<g id="#cccbcdff">
<path fill="#cccbcd" opacity="1.00" d=" M 290.53 338.27 C 296.85 336.37 303.64 336.74 310.19 336.38 C 308.79 338.88 307.14 341.23 305.34 343.46 C 300.43 341.64 295.42 340.13 290.53 338.27 Z" />
</g>
<g id="#8b898cff">
<path fill="#8b898c" opacity="1.00" d=" M 310.19 336.38 C 310.82 336.33 312.07 336.24 312.70 336.19 C 310.31 340.76 308.00 345.44 307.10 350.57 C 306.43 353.89 305.64 357.19 304.70 360.45 C 303.45 360.18 302.17 359.97 300.91 359.77 C 301.24 359.58 301.89 359.19 302.22 358.99 C 302.85 355.97 303.43 352.94 304.13 349.93 C 304.48 348.34 304.83 346.74 305.26 345.17 C 305.72 345.07 306.65 344.87 307.12 344.77 C 306.53 344.32 305.93 343.88 305.34 343.46 C 307.14 341.23 308.79 338.88 310.19 336.38 Z" />
</g>
<g id="#3c77bcff">
<path fill="#3c77bc" opacity="1.00" d=" M 284.68 337.91 C 286.64 337.46 288.65 337.53 290.53 338.27 C 295.42 340.13 300.43 341.64 305.34 343.46 C 305.93 343.88 306.53 344.32 307.12 344.77 C 306.65 344.87 305.72 345.07 305.26 345.17 C 298.40 342.73 291.51 340.42 284.68 337.91 Z" />
</g>
<g id="#e9e8e7ff">
<path fill="#e9e8e7" opacity="1.00" d=" M 379.99 346.90 C 381.68 345.92 383.54 346.82 385.26 347.22 C 384.80 348.63 383.42 350.11 384.33 351.64 C 385.47 354.36 384.63 357.32 384.48 360.15 C 381.05 360.84 377.61 361.46 374.15 361.98 C 372.08 357.86 370.49 353.46 367.73 349.72 C 371.80 348.69 376.12 348.69 379.99 346.90 Z" />
</g>
<g id="#dfdedeff">
<path fill="#dfdede" opacity="1.00" d=" M 269.75 357.33 C 270.31 357.23 271.42 357.04 271.98 356.95 C 273.97 356.98 275.97 356.99 277.96 356.91 L 277.78 358.36 C 275.07 357.76 272.20 357.79 269.65 358.99 C 269.98 359.48 270.63 360.46 270.96 360.94 C 269.07 360.59 267.16 360.64 265.37 361.39 C 263.43 362.15 259.76 361.44 260.00 364.62 C 259.37 365.24 258.75 365.87 258.13 366.50 C 255.96 365.44 253.79 364.39 251.65 363.30 C 251.30 363.43 250.61 363.69 250.27 363.82 L 250.30 362.51 C 248.97 361.67 247.06 361.42 246.42 359.79 C 247.31 359.66 249.08 359.41 249.97 359.29 C 250.42 359.11 251.34 358.74 251.80 358.56 C 253.39 359.12 255.09 358.70 256.73 358.58 C 261.06 358.06 265.48 358.40 269.75 357.33 Z" />
</g>
<g id="#cbcbcbff">
<path fill="#cbcbcb" opacity="1.00" d=" M 277.96 356.91 C 278.53 357.16 279.66 357.64 280.22 357.89 C 282.86 358.92 285.62 359.62 288.40 360.19 L 287.60 361.01 C 287.59 361.40 287.60 361.79 287.62 362.19 C 290.37 361.83 292.98 362.84 295.57 363.57 C 295.52 364.24 295.41 365.59 295.35 366.27 C 293.58 366.35 291.81 366.46 290.09 366.90 C 288.89 367.17 287.71 367.49 286.53 367.80 C 286.50 366.89 286.47 365.98 286.45 365.07 C 283.85 363.39 280.91 362.09 277.75 362.25 C 278.51 361.37 279.26 360.49 280.00 359.60 C 279.45 359.29 278.33 358.67 277.78 358.36 L 277.96 356.91 Z" />
</g>
<g id="#1158a9ff">
<path fill="#1158a9" opacity="1.00" d=" M 244.90 360.95 C 243.91 357.89 248.67 356.50 249.97 359.29 C 249.08 359.41 247.31 359.66 246.42 359.79 C 247.06 361.42 248.97 361.67 250.30 362.51 C 248.48 362.43 245.20 363.77 244.90 360.95 Z" />
</g>
<g id="#7382a2ff">
<path fill="#7382a2" opacity="1.00" d=" M 269.65 358.99 C 272.20 357.79 275.07 357.76 277.78 358.36 C 278.33 358.67 279.45 359.29 280.00 359.60 C 279.26 360.49 278.51 361.37 277.75 362.25 C 276.04 362.50 274.31 362.66 272.59 362.81 C 272.18 362.34 271.36 361.41 270.96 360.94 C 270.63 360.46 269.98 359.48 269.65 358.99 Z" />
</g>
<g id="#1d181aff">
<path fill="#1d181a" opacity="1.00" d=" M 295.83 363.27 C 297.25 361.74 298.86 360.36 300.91 359.77 C 302.17 359.97 303.45 360.18 304.70 360.45 C 309.39 363.08 307.93 370.52 302.96 371.80 C 299.27 373.27 295.63 370.26 295.06 366.65 C 293.39 366.69 291.74 366.75 290.09 366.90 C 291.81 366.46 293.58 366.35 295.35 366.27 C 295.41 365.59 295.52 364.24 295.57 363.57 C 292.98 362.84 290.37 361.83 287.62 362.19 C 287.60 361.79 287.59 361.40 287.60 361.01 C 290.29 361.92 293.16 362.26 295.83 363.27 M 298.53 363.38 C 298.30 364.04 297.84 365.36 297.61 366.01 C 298.11 367.34 298.44 368.97 300.02 369.45 C 303.06 370.88 306.90 366.91 305.04 364.03 C 303.97 361.45 300.34 361.80 298.53 363.38 Z" />
</g>
<g id="#c72300ff">
<path fill="#c72300" opacity="1.00" d=" M 335.08 361.02 C 337.01 359.84 339.25 360.43 341.35 360.68 C 343.35 361.10 345.37 361.36 347.41 361.60 C 347.35 365.02 347.44 368.44 347.38 371.87 C 338.65 370.70 329.96 369.31 321.24 368.16 C 321.11 366.10 322.24 364.06 324.14 363.19 C 327.59 361.52 331.72 363.03 335.08 361.02 Z" />
</g>
<g id="#1464bdff">
<path fill="#1464bd" opacity="1.00" d=" M 298.53 363.38 C 300.34 361.80 303.97 361.45 305.04 364.03 C 306.90 366.91 303.06 370.88 300.02 369.45 C 298.44 368.97 298.11 367.34 297.61 366.01 C 297.84 365.36 298.30 364.04 298.53 363.38 Z" />
</g>
<g id="#0a51a8ff">
<path fill="#0a51a8" opacity="1.00" d=" M 261.21 366.34 C 263.08 365.18 265.88 366.68 265.59 368.98 C 265.96 371.73 262.30 373.28 260.34 371.56 C 258.38 370.27 259.19 367.13 261.21 366.34 M 261.33 368.20 C 260.25 369.46 262.18 371.64 263.47 370.36 C 265.30 369.05 262.70 366.53 261.33 368.20 Z" />
</g>
<g id="#216fcaff">
<path fill="#216fca" opacity="1.00" d=" M 261.33 368.20 C 262.70 366.53 265.30 369.05 263.47 370.36 C 262.18 371.64 260.25 369.46 261.33 368.20 Z" />
</g>
</svg>
